<svg width="25" height="25" viewBox="0 0 25 25" fill="none" xmlns="http://www.w3.org/2000/svg">
<g clip-path="url(#clip0_135_1842)">
<path d="M3.9607 18.5087C4.02421 18.8137 4.19062 19.0876 4.43206 19.2846C4.67349 19.4815 4.97528 19.5895 5.28684 19.5904H19.7132C20.0247 19.5895 20.3265 19.4815 20.568 19.2846C20.8094 19.0876 20.9758 18.8137 21.0393 18.5087L21.2767 17.3516H3.72333L3.9607 18.5087Z" fill="#298AF1"/>
<path d="M22.865 5.96938C22.5315 5.9694 22.2097 6.09254 21.9614 6.31519C21.7131 6.53784 21.5557 6.84432 21.5195 7.17587C21.4832 7.50741 21.5706 7.84066 21.7649 8.11173C21.9593 8.38279 22.2468 8.57257 22.5724 8.64468C22.4299 9.35635 22.0327 9.99161 21.4553 10.4314C20.8779 10.8713 20.16 11.0855 19.436 11.0339C18.712 10.9824 18.0317 10.6686 17.5225 10.1514C17.0132 9.63422 16.7101 8.94909 16.6697 8.22439C16.9658 7.66493 17.1451 7.05119 17.1969 6.42036C17.5312 6.3659 17.8329 6.18814 18.0426 5.92215C18.2522 5.65615 18.3546 5.32124 18.3295 4.98348C18.3043 4.64573 18.1535 4.32965 17.9068 4.09761C17.6601 3.86558 17.3354 3.73442 16.9967 3.73003C16.6581 3.72564 16.3301 3.84833 16.0774 4.0739C15.8248 4.29946 15.6658 4.61152 15.6319 4.94851C15.5981 5.2855 15.6917 5.62296 15.8944 5.8943C16.0971 6.16564 16.3941 6.35116 16.7269 6.41427C16.6308 7.46855 16.1441 8.44884 15.3623 9.16264C14.5805 9.87645 13.5601 10.2722 12.5014 10.2722C11.4428 10.2722 10.4223 9.87645 9.64054 9.16264C8.85873 8.44884 8.372 7.46855 8.27593 6.41427C8.60853 6.35116 8.90541 6.1657 9.108 5.89446C9.31059 5.62323 9.40417 5.28592 9.3703 4.94908C9.33642 4.61224 9.17754 4.30033 8.92499 4.07487C8.67245 3.84941 8.34459 3.72678 8.00608 3.73117C7.66756 3.73556 7.34299 3.86665 7.09638 4.09858C6.84976 4.33051 6.69902 4.64643 6.67389 4.98404C6.64875 5.32164 6.75105 5.65641 6.9606 5.9223C7.17015 6.18819 7.47174 6.3659 7.80587 6.42036C7.85757 7.04922 8.03601 7.66112 8.33045 8.21919C8.29143 8.94444 7.98913 9.63053 7.48026 10.1488C6.97139 10.667 6.29092 10.9817 5.56651 11.0339C4.84209 11.0862 4.12351 10.8723 3.54558 10.4324C2.96764 9.99251 2.57006 9.35687 2.42743 8.64472C2.75725 8.57165 3.04783 8.37787 3.24207 8.10148C3.43632 7.82508 3.52018 7.48604 3.47719 7.15096C3.4342 6.81588 3.26746 6.50899 3.00974 6.29058C2.75201 6.07217 2.42193 5.95803 2.08434 5.97058C1.74675 5.98313 1.42605 6.12147 1.18526 6.35841C0.944465 6.59536 0.800978 6.91378 0.782989 7.25113C0.764999 7.58847 0.873808 7.92035 1.08804 8.18156C1.30227 8.44277 1.60643 8.61443 1.94077 8.66282L3.62719 16.8829H21.3729L23.0591 8.66277C23.3977 8.61366 23.7051 8.43816 23.9196 8.17157C24.134 7.90497 24.2396 7.56706 24.215 7.2258C24.1904 6.88454 24.0375 6.56525 23.7871 6.33215C23.5366 6.09905 23.2072 5.96944 22.865 5.96938Z" fill="#298AF1"/>
<path d="M19.5068 20.8007H5.49304C5.43088 20.8007 5.37127 20.8254 5.32731 20.8693C5.28336 20.9133 5.25867 20.9729 5.25867 21.035C5.25867 21.0972 5.28336 21.1568 5.32731 21.2008C5.37127 21.2447 5.43088 21.2694 5.49304 21.2694H19.5068C19.569 21.2694 19.6286 21.2447 19.6725 21.2008C19.7165 21.1568 19.7412 21.0972 19.7412 21.035C19.7412 20.9729 19.7165 20.9133 19.6725 20.8693C19.6286 20.8254 19.569 20.8007 19.5068 20.8007Z" fill="#298AF1"/>
</g>
<defs>
<clipPath id="clip0_135_1842">
<rect width="24" height="24" fill="white" transform="translate(0.5 0.5)"/>
</clipPath>
</defs>
</svg>
