<svg width="33" height="32" viewBox="0 0 33 32" fill="none" xmlns="http://www.w3.org/2000/svg">
<g clip-path="url(#clip0_1_8551)">
<path d="M28.1044 14.9235C28.5768 14.4631 28.7436 13.7874 28.5398 13.1593C28.3356 12.5312 27.8036 12.0828 27.15 11.9877L21.3389 11.1433C21.0914 11.1073 20.8775 10.952 20.767 10.7276L18.169 5.4624C17.8773 4.87081 17.2852 4.50317 16.6254 4.50317C15.966 4.50317 15.374 4.87081 15.0822 5.4624L12.4838 10.7281C12.3732 10.9525 12.1589 11.1077 11.9114 11.1438L6.10027 11.9882C5.44717 12.0828 4.91469 12.5317 4.71044 13.1598C4.50668 13.7879 4.67344 14.4636 5.14585 14.924L9.35041 19.0224C9.52967 19.1973 9.61184 19.4491 9.56955 19.6952L8.57764 25.4823C8.4897 25.9917 8.6233 26.4872 8.95297 26.8779C9.46527 27.4868 10.3596 27.6723 11.0747 27.2964L16.2717 24.5639C16.4889 24.45 16.7623 24.451 16.9791 24.5639L22.1765 27.2964C22.4293 27.4296 22.6989 27.4968 22.9772 27.4968C23.4851 27.4968 23.9667 27.271 24.2978 26.8779C24.6279 26.4872 24.7611 25.9907 24.6731 25.4823L23.6807 19.6952C23.6384 19.4486 23.7206 19.1973 23.8999 19.0224L28.1044 14.9235Z" fill="#FFFF5A"/>
</g>
<defs>
<clipPath id="clip0_1_8551">
<rect width="24" height="24" fill="white" transform="translate(4.625 4)"/>
</clipPath>
</defs>
</svg>
