<svg width="33" height="32" viewBox="0 0 33 32" fill="none" xmlns="http://www.w3.org/2000/svg">
<g clip-path="url(#clip0_1_8503)">
<path d="M27.6044 14.9235C28.0768 14.4631 28.2436 13.7874 28.0398 13.1593C27.8356 12.5312 27.3036 12.0828 26.65 11.9877L20.8389 11.1433C20.5914 11.1073 20.3775 10.952 20.267 10.7276L17.669 5.4624C17.3773 4.87081 16.7852 4.50317 16.1254 4.50317C15.466 4.50317 14.874 4.87081 14.5822 5.4624L11.9838 10.7281C11.8732 10.9525 11.6589 11.1077 11.4114 11.1438L5.60027 11.9882C4.94717 12.0828 4.41469 12.5317 4.21044 13.1598C4.00668 13.7879 4.17344 14.4636 4.64585 14.924L8.85041 19.0224C9.02967 19.1973 9.11184 19.4491 9.06955 19.6952L8.07764 25.4823C7.9897 25.9917 8.1233 26.4872 8.45297 26.8779C8.96527 27.4868 9.85962 27.6723 10.5747 27.2964L15.7717 24.5639C15.9889 24.45 16.2623 24.451 16.4791 24.5639L21.6765 27.2964C21.9293 27.4296 22.1989 27.4968 22.4772 27.4968C22.9851 27.4968 23.4667 27.271 23.7978 26.8779C24.1279 26.4872 24.2611 25.9907 24.1731 25.4823L23.1807 19.6952C23.1384 19.4486 23.2206 19.1973 23.3999 19.0224L27.6044 14.9235Z" fill="#FFFF5A" fill-opacity="0.2"/>
</g>
<defs>
<clipPath id="clip0_1_8503">
<rect width="24" height="24" fill="white" transform="translate(4.125 4)"/>
</clipPath>
</defs>
</svg>
