<svg width="173" height="75" viewBox="0 0 173 75" fill="none" xmlns="http://www.w3.org/2000/svg">
<g clip-path="url(#clip0_1_9383)">
<path fill-rule="evenodd" clip-rule="evenodd" d="M131.466 49.3115C138.252 49.3115 143.754 43.8097 143.754 37.0229C143.754 30.2362 138.252 24.7344 131.466 24.7344C124.679 24.7344 119.177 30.2362 119.177 37.0229C119.177 43.8097 124.679 49.3115 131.466 49.3115ZM132.863 37.5509C132.919 37.5479 132.955 37.5459 132.973 37.5459C135.948 37.408 138.195 36.8955 138.195 36.2648C138.195 35.6341 135.968 35.1217 132.973 34.9837V37.0138C132.955 37.0138 132.917 37.0158 132.859 37.0189C132.657 37.0296 132.212 37.0532 131.495 37.0532C130.707 37.0532 130.155 37.0335 129.958 37.0138V34.9837C126.963 35.1217 124.736 35.6341 124.736 36.2648C124.736 36.8955 126.963 37.408 129.958 37.5459C130.155 37.5656 130.687 37.5853 131.475 37.5853C132.226 37.5853 132.667 37.5615 132.863 37.5509ZM132.973 32.9537V34.767C136.342 34.9246 138.884 35.6144 138.904 36.4028C138.904 37.2109 136.362 37.881 132.973 38.0386V43.8724H129.958V38.0386C126.569 37.881 124.027 37.2109 124.027 36.4028C124.027 35.5947 126.569 34.9246 129.958 34.767V32.9537H125.781V30.1748H137.131V32.9537H132.973Z" fill="#516389"/>
<circle cx="131.708" cy="37.1032" r="12.0192" stroke="#516389" stroke-width="0.686813"/>
</g>
<g clip-path="url(#clip1_1_9383)">
<g clip-path="url(#clip2_1_9383)">
<path fill-rule="evenodd" clip-rule="evenodd" d="M41.8527 49.0091C48.5557 49.0091 53.9895 43.5752 53.9895 36.8722C53.9895 30.1692 48.5557 24.7354 41.8527 24.7354C35.1497 24.7354 29.7158 30.1692 29.7158 36.8722C29.7158 43.5752 35.1497 49.0091 41.8527 49.0091ZM41.3925 31.9224C41.3925 30.6734 42.0536 29.489 43.17 28.8331H43.1703C43.6936 28.5069 44.3547 28.3726 44.9444 28.376C45.5372 28.376 46.1933 28.5069 46.72 28.8365C47.8398 29.4925 48.4975 30.6769 48.4975 31.9258C48.4975 33.1746 47.8364 34.359 46.72 35.0149C46.1269 35.3446 45.403 35.4754 44.747 35.4754C43.9602 35.4754 43.3671 36.0651 43.3671 36.8552C43.3671 37.8425 44.1539 38.235 44.747 38.235C45.4693 38.235 46.1269 38.3658 46.72 38.6955C47.8398 39.3531 48.4975 40.5374 48.4975 41.7864C48.4975 43.0354 47.8364 44.2198 46.7198 44.8757C45.6033 45.5315 44.2863 45.5315 43.1699 44.8757C42.0483 44.2197 41.3924 43.0371 41.3924 41.7864C41.3924 41.1305 41.5895 40.4729 41.9191 39.8799C42.2454 39.224 42.0483 38.3658 41.3924 37.9733C40.473 37.4466 39.7491 38.0396 39.4858 38.5001C39.1593 39.0932 38.699 39.6165 38.1059 39.9461C36.9893 40.602 35.6723 40.602 34.5559 39.9461C33.4362 39.2885 32.7803 38.1045 32.7803 36.8552C32.7803 35.6059 33.4396 34.4185 34.5562 33.7626C35.6727 33.1068 36.9897 33.1068 38.1061 33.7626C38.6992 34.1552 39.1597 34.682 39.5523 35.2087C39.9448 35.8663 40.8029 36.1279 41.4589 35.7354C42.3781 35.275 42.249 34.3556 41.9856 33.8289C41.6559 33.2392 41.3925 32.5782 41.3925 31.9224Z" fill="#516389"/>
<circle cx="41.7353" cy="37.1042" r="12.0192" stroke="#516389" stroke-width="0.686813"/>
</g>
</g>
<g clip-path="url(#clip3_1_9383)">
<path fill-rule="evenodd" clip-rule="evenodd" d="M109.836 51.278C117.709 51.278 124.091 44.8959 124.091 37.0232C124.091 29.1506 117.709 22.7686 109.836 22.7686C101.963 22.7686 95.5813 29.1506 95.5813 37.0232C95.5813 44.8959 101.963 51.278 109.836 51.278ZM109.928 37.3452L109.002 40.8316H116.328L115.575 43.6337H103.841L105.039 39.1314L103.343 39.751L103.904 37.6387L105.601 37.0185L107.635 29.3789H112.044L110.489 35.2329L112.647 34.4446L112.665 34.4955L112.12 36.5444L109.928 37.3452Z" fill="#516389"/>
<circle cx="109.904" cy="37.2802" r="14.2548" stroke="#516389" stroke-width="0.686813"/>
</g>
<g clip-path="url(#clip4_1_9383)">
<path fill-rule="evenodd" clip-rule="evenodd" d="M61.6659 51.278C69.5385 51.278 75.9206 44.896 75.9206 37.0233C75.9206 29.1506 69.5385 22.7686 61.6659 22.7686C53.7932 22.7686 47.4111 29.1506 47.4111 37.0233C47.4111 44.896 53.7932 51.278 61.6659 51.278ZM62.1084 26.3328V34.2345L62.1086 34.2346L55.4287 37.2191L62.1084 26.3328ZM62.1086 26.3324L62.1084 26.3328V26.332L62.1086 26.3324ZM62.1088 26.3328L62.1086 26.3324L62.1088 26.332V26.3328ZM62.1088 26.3328V34.2345L62.1086 34.2346L68.7876 37.2191L62.1088 26.3328ZM62.1084 47.7101V47.7107L62.1086 47.7104L62.1088 47.7107V47.7101L68.7921 38.4639L62.1088 42.3409V42.3403L55.4287 38.4639L62.1084 47.7101ZM62.1084 47.7101V42.3412L62.1088 42.3409V47.7101L62.1086 47.7104L62.1084 47.7101ZM62.1088 41.098L68.7876 37.2201L62.1088 34.2375V34.2373L62.1086 34.2374L62.1084 34.2373V34.2375L55.4287 37.2201L62.1084 41.098V41.0983L62.1086 41.0982L62.1088 41.0983V41.098ZM62.1088 41.098V34.2375L62.1086 34.2374L62.1084 34.2375V41.098L62.1086 41.0982L62.1088 41.098Z" fill="#516389"/>
<circle cx="61.8283" cy="37.2802" r="14.2548" stroke="#516389" stroke-width="0.686813"/>
</g>
<g clip-path="url(#clip5_1_9383)">
<path fill-rule="evenodd" clip-rule="evenodd" d="M81.9465 52.7726C90.3654 54.8743 98.9074 49.7493 101.009 41.3183C103.111 32.8872 97.9732 24.3457 89.5543 22.2564C81.1231 20.1547 72.5936 25.2798 70.492 33.7107C68.3903 42.1295 73.5154 50.671 81.9465 52.7726ZM89.7732 31.5844C91.9605 32.334 93.5458 33.4645 93.2385 35.5536C93.0173 37.0774 92.1694 37.827 91.0266 38.085C92.575 38.8961 93.3614 40.1372 92.6118 42.2754C91.6902 44.942 89.4782 45.1632 86.529 44.6102L85.8163 47.4735L84.0959 47.0434L84.7963 44.217C84.3539 44.1064 83.8869 43.9835 83.42 43.8606L82.7072 46.6993L80.9868 46.2692L81.6996 43.406C81.4671 43.3426 81.2347 43.2832 80.9999 43.2233C80.8251 43.1786 80.649 43.1337 80.4707 43.0865L78.2219 42.5212L79.0821 40.5427C79.0821 40.5427 80.3478 40.8745 80.3356 40.8499C80.8148 40.9728 81.036 40.6533 81.122 40.4444L82.2526 35.9222C82.314 35.9468 82.3754 35.9591 82.4369 35.9714L82.4369 35.9714C82.3721 35.939 82.3168 35.9256 82.271 35.9145C82.2647 35.9129 82.2585 35.9114 82.2526 35.9099L83.0636 32.678C83.0882 32.3094 82.9653 31.8424 82.2649 31.6704C82.2894 31.6581 81.0114 31.3632 81.0114 31.3632L81.4661 29.5199L83.8501 30.1097V30.122C84.2065 30.208 84.5751 30.2941 84.9561 30.3801L85.6565 27.5537L87.3769 27.9838L86.6887 30.761C87.1557 30.8593 87.6227 30.9699 88.0773 31.0805L88.7655 28.3156L90.4859 28.7457L89.7732 31.5844ZM84.2995 41.8541C85.6961 42.2263 88.8066 43.0553 89.2939 41.0834C89.8009 39.0775 86.8283 38.4061 85.3677 38.0762C85.1998 38.0382 85.0518 38.0048 84.9315 37.9744L83.9853 41.7716C84.0761 41.7945 84.1817 41.8227 84.2995 41.8541ZM85.6496 36.3026C86.8173 36.618 89.3832 37.3111 89.8346 35.5167C90.2864 33.6987 87.8139 33.1452 86.5981 32.8731C86.4579 32.8417 86.3344 32.814 86.2341 32.7886L85.3739 36.2294C85.4531 36.2495 85.5458 36.2745 85.6496 36.3026Z" fill="#516389"/>
<circle cx="85.9636" cy="37.3794" r="15.728" stroke="#516389" stroke-width="0.686813"/>
</g>
<defs>
<clipPath id="clip0_1_9383">
<rect width="25.4121" height="26.0989" fill="white" transform="translate(119.001 23.7109)"/>
</clipPath>
<clipPath id="clip1_1_9383">
<rect width="25.4121" height="25.4121" fill="white" transform="translate(29.0286 24.3984)"/>
</clipPath>
<clipPath id="clip2_1_9383">
<rect width="26.7857" height="25.4121" fill="white" transform="translate(27.6555 24.3984)"/>
</clipPath>
<clipPath id="clip3_1_9383">
<rect width="29.533" height="30.2198" fill="white" transform="translate(95.6497 22.3379)"/>
</clipPath>
<clipPath id="clip4_1_9383">
<rect width="28.8462" height="30.2198" fill="white" transform="translate(46.886 22.3379)"/>
</clipPath>
<clipPath id="clip5_1_9383">
<rect width="32.967" height="32.967" fill="white" transform="translate(69.55 20.9639)"/>
</clipPath>
</defs>
</svg>
