<svg width="172" height="75" viewBox="0 0 172 75" fill="none" xmlns="http://www.w3.org/2000/svg">
<g clip-path="url(#clip0_1_9439)">
<path fill-rule="evenodd" clip-rule="evenodd" d="M54.776 0H117.511C120.832 0 123.524 2.6921 123.524 6.01298V68.9421C123.524 72.263 120.832 74.9551 117.511 74.9551H54.776C51.4551 74.9551 48.763 72.263 48.763 68.9421V6.01298C48.763 2.6921 51.4551 0 54.776 0ZM56.0164 24.9331V46.3337L52.1722 47.2387V25.7361L56.0164 24.9331ZM61.8748 42.8296V36.3411C61.8782 35.7483 62.065 35.0015 62.475 34.4604C63.1196 33.6096 64.6071 33.1057 65.0097 34.36C65.1705 34.8616 65.1692 35.1702 65.1672 35.635L65.167 35.696L65.1667 35.8022V44.1786L68.8416 43.3132V33.6379C68.8416 32.7248 68.693 32.0102 68.398 31.4894C68.1049 30.9719 67.6778 30.6314 67.1259 30.4764C66.5691 30.32 65.901 30.3166 65.1206 30.5003C63.6897 30.8368 62.4565 31.8325 61.7257 33.1588L61.6713 33.1708L61.6714 31.6947L58.1751 32.5174L58.1412 42.232C58.5668 42.0426 59.061 41.9461 59.5552 41.9461C60.3138 41.9461 61.2246 42.2887 61.8748 42.8296ZM69.8192 29.739L71.6588 29.3524L71.6358 26.3432L75.3739 25.4528L75.3657 28.4459L77.9915 27.8395V30.5887L75.3657 31.2112L75.3737 38.3173C75.3749 39.39 75.5023 40.5709 76.0305 41.5342C76.0462 41.5629 76.064 41.5874 76.0822 41.6088L72.137 42.5376C72.0681 42.3956 72.0124 42.2344 71.975 42.0525C71.5542 40.0059 71.5908 37.314 71.6247 34.8288C71.6379 33.8608 71.6506 32.9242 71.6358 32.0693L69.8192 32.5211V29.739ZM89.2994 32.5811L89.3021 32.3824C89.3356 29.9997 89.3839 26.562 86.405 26.0024C85.7147 25.8729 84.909 25.855 83.8526 26.1064C82.8737 26.3394 82.0521 26.6622 81.3837 27.0683C80.7135 27.4756 80.3037 27.963 79.8936 28.5014C79.4835 29.0399 79.1692 29.6277 78.9577 30.263C78.7465 30.897 78.5832 31.546 78.5144 32.2409C78.5055 32.3307 78.4964 32.4207 78.4872 32.5109C78.4256 33.1173 78.363 33.733 78.3748 34.3591L78.3749 34.3647C78.3874 35.0346 78.3999 35.7034 78.4628 36.3641C78.5623 37.4085 79.0296 38.9575 79.855 39.649C80.3168 40.0364 80.7763 40.2849 81.3476 40.3989C82.0359 40.5361 82.9117 40.4548 83.9593 40.2056C85.1011 39.9338 86.1556 39.5322 86.8946 38.9803C87.6348 38.4274 88.2386 37.7486 88.6037 36.938C88.9687 36.1276 89.067 35.1184 89.087 34.0696L85.7123 34.866C85.8546 35.6088 85.4529 37.2748 83.9223 37.4519C82.0963 37.663 82.0466 35.6936 82.1155 34.2258L89.2994 32.5811ZM82.2185 30.8397L82.1981 30.9552C82.1304 31.3374 82.1131 31.4354 82.1236 31.9947L85.7636 31.1399C85.7713 30.8279 85.7668 30.5309 85.7526 30.257C85.7255 29.7353 85.6274 29.022 85.1301 28.7056C84.8569 28.5319 84.4881 28.4819 83.9909 28.6026C83.6292 28.6902 83.3271 28.8437 83.0878 29.0587C82.8486 29.2736 82.6604 29.5247 82.5224 29.817C82.3838 30.1103 82.2904 30.4213 82.2346 30.7465L82.2185 30.8397ZM94.3598 37.4086L90.684 38.2663V24.8619L94.1676 24.0253L94.1514 25.7869L94.2046 25.7744C94.52 25.0665 94.9102 24.5059 95.3428 24.0495C96.1231 23.2266 97.0739 22.8 98.1574 22.853L98.1732 26.2402L98.1735 26.288L98.1454 26.2929C98.1342 26.2948 98.123 26.2965 98.1117 26.2974C98.0297 26.3042 97.951 26.3099 97.8747 26.3155C97.466 26.3453 97.1253 26.3702 96.7021 26.5195C96.2643 26.674 95.7884 26.9107 95.5556 27.0995C94.6465 27.8373 94.4035 28.9308 94.3598 30.1853V37.4086ZM102.453 26.263V25.8952C102.453 25.5481 102.504 25.1878 102.634 24.9043C102.764 24.6208 102.953 24.3785 103.208 24.1843C103.463 23.9902 103.728 23.8247 104.11 23.7772C104.807 23.6907 105.278 23.6809 105.519 24.4893C105.556 24.6149 105.556 24.7594 105.556 24.9138V24.9252C105.556 25.2176 105.512 25.476 105.417 25.6941C105.323 25.9122 105.165 26.1095 104.951 26.2841C104.928 26.3032 104.905 26.322 104.882 26.3407C104.695 26.4951 104.521 26.639 104.19 26.7827L102.068 27.7048C101.426 27.9837 100.88 28.3062 100.418 28.6268C99.9562 28.9471 99.575 29.3002 99.2793 29.6848C98.9836 30.0692 98.7448 30.5195 98.604 31.005C98.4628 31.4921 98.4338 32.134 98.4338 32.762C98.4338 33.2167 98.5493 33.6466 98.6742 34.0667C98.8001 34.4904 99.0456 34.8014 99.319 35.1157C99.5924 35.43 99.9599 35.7149 100.408 35.8453C100.856 35.9761 101.479 36.0602 102.125 35.9287C102.712 35.809 103.232 35.6537 103.676 35.4615C104.124 35.2675 104.523 35.0061 104.868 34.6814C105.213 34.3566 105.556 33.8947 105.838 33.3764L105.888 33.3692C105.9 33.4241 105.912 33.4757 105.923 33.5259C105.955 33.6741 105.985 33.81 106.035 33.9814C106.102 34.2109 106.196 34.4184 106.313 34.6088L109.702 33.8123C109.671 33.758 109.642 33.707 109.613 33.6578C109.522 33.5027 109.441 33.3651 109.391 33.1939C109.323 32.9684 109.28 32.709 109.256 32.4247C109.249 32.3445 109.24 32.257 109.23 32.1637C109.203 31.922 109.173 31.6412 109.172 31.3461L109.139 24.3659C109.137 23.7649 109.002 23.2168 108.861 22.751C108.72 22.2848 108.43 21.9093 108.058 21.624C107.686 21.3389 107.346 21.1742 106.656 21.1215C105.965 21.0686 105.093 21.1187 103.999 21.3441C103.296 21.4891 102.613 21.7401 102.002 22.0107C101.389 22.2827 100.883 22.6901 100.416 23.1064C99.9503 23.5226 99.6174 24.1655 99.3549 24.7466C99.0932 25.3253 99.0206 26.0155 99.0206 26.7766V27.0947L102.453 26.263ZM105.476 30.599C105.469 30.9675 105.319 31.3136 105.179 31.6027C105.107 31.7526 105.025 31.8915 104.929 32.0179C104.405 32.7096 103.229 33.2848 102.454 32.6915C102.334 32.599 102.243 32.472 102.178 32.3088C101.941 31.7088 102.061 30.8609 102.424 30.3486C102.477 30.2747 102.529 30.2006 102.582 30.1269C103.009 29.6843 103.55 29.3564 104.171 29.1078C104.189 29.101 104.345 29.0218 104.544 28.9019C104.94 28.663 105.509 28.2967 105.516 28.2629L105.476 30.599ZM121.133 19.7786C121.492 20.4898 121.552 21.4143 121.561 22.4757L118.015 23.294C118.015 23.2639 118.014 23.2338 118.013 23.2038C118.011 23.148 118.009 23.0923 118.015 23.0373C118.032 22.872 118.015 22.5401 117.972 22.2038C117.858 21.322 117.596 20.6986 116.558 20.893C115.811 21.0328 115.146 21.7073 114.891 22.4078C114.741 22.8187 114.623 23.3206 114.574 23.9111C114.524 24.4977 114.507 25.178 114.514 25.9514C114.524 27.0552 114.54 27.4595 114.652 28.1275C114.762 28.7953 114.888 29.2741 115.186 29.5348C115.482 29.794 115.905 29.8563 116.467 29.7329C116.714 29.6788 116.943 29.6036 117.13 29.4712C117.985 28.8671 118 27.9956 118.015 27.0745C118.018 26.9025 118.021 26.7288 118.029 26.5547L121.543 25.7446C121.547 27.8602 121.301 29.7573 119.449 31.2187C118.647 31.8512 117.682 32.3054 116.356 32.6018C115.412 32.8129 114.586 32.8818 113.881 32.7998C113.173 32.7171 112.687 32.426 112.216 31.9887C111.743 31.5496 111.401 30.9118 111.16 30.0512C110.919 29.1908 110.748 28.1171 110.739 26.7725C110.729 25.3978 110.786 24.2209 111.07 23.2409C111.353 22.261 111.704 21.4326 112.229 20.7844C112.757 20.1334 113.416 19.5929 114.139 19.2087C114.862 18.8244 115.689 18.5788 116.559 18.3929C117.717 18.1453 118.696 18.1276 119.486 18.3691C120.304 18.6195 120.787 19.0917 121.133 19.7786ZM70.3713 72.0954H63.2616C63.1914 72.101 63.1142 72.1034 63.0296 72.1042C62.2873 72.1114 61.2659 71.7295 60.3596 71.2761C57.5508 69.871 57.0644 66.9367 57.0644 64.1893V45.5314C57.0644 44.1975 58.1556 43.1061 59.4896 43.1061C60.8235 43.1061 61.8845 44.1978 61.9148 45.5314C61.9457 46.89 61.9111 48.5721 61.8759 50.2835C61.8248 52.768 61.7724 55.3144 61.9172 57.0229C61.9519 57.4322 62.2347 57.583 62.468 57.5739C62.6854 57.5654 62.8958 57.4321 62.9305 57.0973C63.0323 56.1172 62.991 54.17 62.9491 52.1986C62.9125 50.4704 62.8754 48.7235 62.934 47.5933C64.8355 48.8935 66.729 50.1536 68.6461 51.425C69.8617 52.2311 70.4447 52.8651 70.4447 55.1027L70.3713 72.0954ZM50.76 49.0269C50.8397 48.8405 50.9545 48.6921 51.1355 48.6471L56.0638 47.4944L56.0638 51.3181L53.3724 51.9434C52.5553 52.1344 51.8873 51.9746 51.4122 51.5934C50.6868 51.011 50.3909 49.8887 50.76 49.0269ZM51.1356 53.5924C50.9546 53.6375 50.8398 53.7859 50.7601 53.9721C50.3909 54.8339 50.6868 55.9562 51.4123 56.5386C51.8874 56.92 52.5554 57.0796 53.3724 56.8886L56.0638 56.2634L56.0639 52.4397L51.1356 53.5924ZM50.7601 58.8861C50.8398 58.6999 50.9546 58.5515 51.1356 58.5065L56.0639 57.3538L56.0638 61.1775L53.3724 61.8026C52.5554 61.9938 51.8874 61.834 51.4123 61.4526C50.6868 60.8703 50.3909 59.748 50.7601 58.8861ZM119.282 12.1064C118.019 12.1064 116.995 13.1342 116.995 14.4021C116.995 15.6701 118.019 16.6979 119.282 16.6979C120.546 16.6979 121.57 15.6701 121.57 14.4021C121.57 13.1342 120.546 12.1064 119.282 12.1064ZM117.273 14.4021C117.273 13.2886 118.173 12.3861 119.282 12.3861C120.392 12.3861 121.291 13.2886 121.291 14.4021C121.291 15.5155 120.392 16.4181 119.282 16.4181C118.173 16.4181 117.273 15.5155 117.273 14.4021ZM118.97 15.8471H118.438V13.0766H119.42C119.566 13.0766 119.691 13.1031 119.796 13.1561C119.9 13.2098 119.981 13.2894 120.037 13.3948C120.093 13.5008 120.121 13.6328 120.122 13.7906C120.122 13.9141 120.107 14.0227 120.075 14.1165C120.043 14.2109 119.995 14.2885 119.929 14.3493C119.865 14.4094 119.782 14.4508 119.682 14.4734V14.4812C119.772 14.4935 119.845 14.5168 119.9 14.5523C119.956 14.5873 119.998 14.6377 120.028 14.7031C120.057 14.769 120.078 14.8525 120.089 14.9546C120.1 15.0568 120.106 15.181 120.107 15.3271C120.108 15.4241 120.112 15.5056 120.117 15.5728C120.123 15.6401 120.135 15.6944 120.151 15.7352C120.168 15.7766 120.193 15.8057 120.225 15.8238V15.8471H119.649C119.624 15.8076 119.607 15.763 119.598 15.7132C119.589 15.6634 119.584 15.611 119.583 15.556L119.568 15.0244C119.565 14.9145 119.538 14.8292 119.488 14.7683C119.439 14.707 119.36 14.6759 119.254 14.6752H118.97V15.8471ZM118.97 13.4879H119.221C119.341 13.4879 119.433 13.5196 119.495 13.5836C119.558 13.6476 119.59 13.744 119.59 13.872C119.59 13.971 119.574 14.0512 119.543 14.1126C119.512 14.1734 119.467 14.218 119.408 14.2458C119.349 14.2736 119.276 14.2879 119.191 14.2872H118.97V13.4879Z" fill="#516389"/>
</g>
<defs>
<clipPath id="clip0_1_9439">
<rect width="76" height="75" fill="white" transform="translate(48.0833)"/>
</clipPath>
</defs>
</svg>
