<svg width="172" height="75" viewBox="0 0 172 75" fill="none" xmlns="http://www.w3.org/2000/svg">
<g clip-path="url(#clip0_1_9370)">
<path d="M59.2458 70.258V65.8754C59.2458 64.1954 58.2256 63.0998 56.4766 63.0998C55.6023 63.0998 54.6549 63.3919 53.999 64.3415C53.4889 63.538 52.7602 63.0998 51.6671 63.0998C50.9384 63.0998 50.2096 63.3189 49.6267 64.1223V63.2459H48.0963V70.258H49.6267V66.3867C49.6267 65.145 50.2825 64.5605 51.3027 64.5605C52.3229 64.5605 52.8331 65.2179 52.8331 66.3867V70.258H54.3634V66.3867C54.3634 65.145 55.0921 64.5605 56.0395 64.5605C57.0596 64.5605 57.5697 65.2179 57.5697 66.3867V70.258H59.2458ZM81.9093 63.2459H79.4316V61.1276H77.9014V63.2459H76.5168V64.6336H77.9014V67.8475C77.9014 69.4545 78.5571 70.404 80.3061 70.404C80.962 70.404 81.6907 70.1849 82.2008 69.8927L81.7636 68.5779C81.3263 68.8702 80.8162 68.9432 80.4519 68.9432C79.7231 68.9432 79.4316 68.505 79.4316 67.7745V64.6336H81.9093V63.2459ZM94.8807 63.0998C94.0062 63.0998 93.4232 63.538 93.0588 64.1223V63.2459H91.5286V70.258H93.0588V66.3137C93.0588 65.145 93.569 64.4876 94.5163 64.4876C94.8078 64.4876 95.1722 64.5605 95.4637 64.6336L95.9009 63.1728C95.6094 63.0998 95.1722 63.0998 94.8807 63.0998ZM75.2779 63.8302C74.5492 63.3188 73.5289 63.0998 72.4358 63.0998C70.687 63.0998 69.521 63.9762 69.521 65.364C69.521 66.5327 70.3955 67.1902 71.9257 67.4093L72.6544 67.4823C73.4561 67.6284 73.8933 67.8475 73.8933 68.2128C73.8933 68.724 73.3103 69.0893 72.2901 69.0893C71.2698 69.0893 70.4682 68.724 69.9582 68.3589L69.2295 69.5275C70.0311 70.1119 71.1241 70.404 72.2172 70.404C74.2577 70.404 75.4237 69.4545 75.4237 68.1397C75.4237 66.898 74.4763 66.2406 73.0188 66.0214L72.2901 65.9484C71.6342 65.8754 71.1241 65.7293 71.1241 65.291C71.1241 64.7797 71.6342 64.4876 72.4358 64.4876C73.3103 64.4876 74.1848 64.8528 74.622 65.0719L75.2779 63.8302ZM115.941 63.0998C115.067 63.0998 114.484 63.538 114.119 64.1223V63.2459H112.589V70.258H114.119V66.3137C114.119 65.145 114.629 64.4876 115.577 64.4876C115.868 64.4876 116.233 64.5605 116.524 64.6336L116.961 63.1728C116.67 63.0998 116.233 63.0998 115.941 63.0998ZM96.4111 66.7519C96.4111 68.8702 97.8684 70.404 100.128 70.404C101.148 70.404 101.876 70.1849 102.605 69.6006L101.877 68.3589C101.294 68.7971 100.711 69.0163 100.055 69.0163C98.8158 69.0163 97.9413 68.1397 97.9413 66.7519C97.9413 65.4371 98.8158 64.5607 100.055 64.4876C100.711 64.4876 101.294 64.7066 101.877 65.145L102.605 63.9033C101.876 63.3188 101.148 63.0998 100.128 63.0998C97.8684 63.0998 96.4111 64.6336 96.4111 66.7519ZM110.548 66.7519V63.2459H109.018V64.1223C108.508 63.4649 107.779 63.0998 106.832 63.0998C104.864 63.0998 103.334 64.6336 103.334 66.7519C103.334 68.8702 104.864 70.404 106.832 70.404C107.852 70.404 108.581 70.0388 109.018 69.3814V70.258H110.548V66.7519ZM104.937 66.7519C104.937 65.5101 105.739 64.4876 107.05 64.4876C108.289 64.4876 109.164 65.4371 109.164 66.7519C109.164 67.9936 108.289 69.0163 107.05 69.0163C105.739 68.9432 104.937 67.9936 104.937 66.7519ZM86.646 63.0998C84.6057 63.0998 83.1482 64.5605 83.1482 66.7519C83.1482 68.9432 84.6057 70.404 86.7189 70.404C87.7392 70.404 88.7594 70.1119 89.561 69.4545L88.8323 68.3589C88.2493 68.7971 87.5205 69.0893 86.7918 69.0893C85.8444 69.0893 84.8972 68.651 84.6784 67.4093H89.8525C89.8525 67.1902 89.8525 67.0441 89.8525 66.8249C89.9254 64.5605 88.6136 63.0998 86.646 63.0998ZM86.646 64.4145C87.5934 64.4145 88.2493 64.9989 88.395 66.0945H84.7513C84.8972 65.145 85.5529 64.4145 86.646 64.4145ZM124.613 66.7519V60.4702H123.082V64.1223C122.572 63.4649 121.844 63.0998 120.896 63.0998C118.929 63.0998 117.398 64.6336 117.398 66.7519C117.398 68.8702 118.929 70.404 120.896 70.404C121.916 70.404 122.645 70.0388 123.082 69.3814V70.258H124.613V66.7519ZM119.002 66.7519C119.002 65.5101 119.803 64.4876 121.115 64.4876C122.354 64.4876 123.228 65.4371 123.228 66.7519C123.228 67.9936 122.354 69.0163 121.115 69.0163C119.803 68.9432 119.002 67.9936 119.002 66.7519ZM67.8449 66.7519V63.2459H66.3145V64.1223C65.8044 63.4649 65.0758 63.0998 64.1284 63.0998C62.1608 63.0998 60.6304 64.6336 60.6304 66.7519C60.6304 68.8702 62.1608 70.404 64.1284 70.404C65.1485 70.404 65.8773 70.0388 66.3145 69.3814V70.258H67.8449V66.7519ZM62.1608 66.7519C62.1608 65.5101 62.9624 64.4876 64.274 64.4876C65.5129 64.4876 66.3874 65.4371 66.3874 66.7519C66.3874 67.9936 65.5129 69.0163 64.274 69.0163C62.9624 68.9432 62.1608 67.9936 62.1608 66.7519Z" fill="#516389"/>
<path d="M97.7212 9.99756H74.7662V51.3399H97.7212V9.99756Z" fill="#576B95"/>
<path d="M76.224 30.668C76.224 22.2681 80.1591 14.8177 86.2075 9.99688C81.7623 6.49081 76.1511 4.37256 70.0298 4.37256C55.5281 4.37256 43.7955 16.1325 43.7955 30.668C43.7955 45.2037 55.5281 56.9636 70.0298 56.9636C76.1511 56.9636 81.7623 54.8453 86.2075 51.3392C80.1591 46.5915 76.224 39.068 76.224 30.668Z" fill="#323F5B"/>
<path d="M128.69 30.668C128.69 45.2037 116.957 56.9636 102.456 56.9636C96.3344 56.9636 90.7232 54.8453 86.278 51.3392C92.3993 46.5184 96.2615 39.068 96.2615 30.668C96.2615 22.2681 92.3263 14.8177 86.278 9.99688C90.7232 6.49081 96.3344 4.37256 102.456 4.37256C116.957 4.37256 128.69 16.2055 128.69 30.668Z" fill="#516389"/>
</g>
<defs>
<clipPath id="clip0_1_9370">
<rect width="86" height="66.5806" fill="white" transform="translate(42.9166 4.20947)"/>
</clipPath>
</defs>
</svg>
