<svg width="211" height="75" viewBox="0 0 211 75" fill="none" xmlns="http://www.w3.org/2000/svg">
<g clip-path="url(#clip0_1_9451)">
<path d="M60.3001 30.4744C60.3952 30.6009 60.4814 30.7338 60.5581 30.8722C60.3498 29.9988 60.031 29.1555 59.6094 28.3628C56.1338 21.9887 46.4633 23.8948 36.8191 31.1214C34.2788 33.0209 31.9964 35.243 30.0297 37.7316C31.1975 38.4348 32.3124 39.2223 33.3654 40.088C34.007 40.5556 34.6871 40.968 35.3983 41.3209C36.0103 40.6126 36.6486 39.9161 37.3131 39.2311C45.9037 30.3826 56.8377 25.8665 60.3001 30.4744Z" fill="url(#paint0_linear_1_9451)"/>
<path d="M60.9068 35.8827L61.086 35.8302C61.3964 33.8367 61.2696 32.1098 60.557 30.8726C60.9376 32.5136 61.0557 34.2046 60.9068 35.8827Z" fill="url(#paint1_linear_1_9451)"/>
<g style="mix-blend-mode:soft-light">
<g style="mix-blend-mode:soft-light">
<path d="M60.5359 30.8415C60.4592 30.7031 60.373 30.5701 60.278 30.4436L60.2386 30.3999C60.3173 30.6404 60.3873 30.8852 60.4485 31.1387C60.555 31.3177 60.6471 31.5048 60.7239 31.6983C60.6715 31.4054 60.6059 31.1213 60.5359 30.8415Z" fill="#E7E6E6" fill-opacity="0.5"/>
</g>
<g style="mix-blend-mode:soft-light">
<path d="M36.7229 31.5104C46.3409 24.2313 55.9939 22.2684 59.5001 28.625C59.8056 29.1828 60.0574 29.7683 60.252 30.3737C60.2628 30.3903 60.2761 30.405 60.2914 30.4175C60.3849 30.545 60.471 30.6779 60.5493 30.8153C60.3362 29.9435 60.0146 29.1019 59.5919 28.3102C56.0944 21.9536 46.424 23.9166 36.8103 31.1956C33.2838 33.8442 30.2817 37.1266 27.9574 40.8748C27.9776 40.8971 27.9966 40.9204 28.0142 40.9448C30.3194 37.2967 33.2706 34.0996 36.7229 31.5104Z" fill="#E7E6E6" fill-opacity="0.5"/>
</g>
</g>
<path d="M33.977 37.8148C33.1027 37.0629 32.1846 36.3547 31.3539 35.5415C29.6805 37.5192 27.8325 39.3423 25.8323 40.9888C17.2286 48.0974 7.95595 50.4538 5.12738 46.235C5.08366 46.1694 5.04432 46.0994 5.00497 46.0339C4.46277 45.2315 4.05657 44.3453 3.80272 43.4108C3.3312 41.6362 3.36147 39.7656 3.89016 38.0072C2.57861 40.6653 2.21138 43.2927 3.0464 45.5399C5.23231 51.4768 14.999 52.4779 24.8356 47.7739C29.4172 45.5879 33.2032 42.5277 35.7257 39.3056C35.1399 38.8073 34.5672 38.2914 33.977 37.8148Z" fill="url(#paint2_linear_1_9451)"/>
<path d="M13.1273 28.9136C12.6668 28.9528 12.2122 29.0437 11.7721 29.1846L11.7983 29.2502L11.7196 29.2109C9.82224 30.5661 9.75666 30.5749 11.7983 29.2502C10.6002 29.9952 9.47723 30.8546 8.44511 31.8165C6.76831 33.4484 5.34617 35.323 4.22631 37.3774C4.10972 37.596 3.99606 37.8146 3.8853 38.0332C3.35662 39.7916 3.32635 41.6622 3.79787 43.4368C4.05172 44.3713 4.45792 45.2575 5.00012 46.0599C4.2566 44.7441 3.86087 43.2605 3.85033 41.7492C3.8853 38.007 7.05487 33.0581 9.20144 31.2131C10.1295 30.3506 11.3122 29.8122 12.5721 29.6786C12.7123 29.3939 12.9001 29.1351 13.1273 28.9136Z" fill="url(#paint3_linear_1_9451)"/>
<path style="mix-blend-mode:multiply" opacity="0.71" d="M21.3324 44.2723C25.3632 41.7716 28.9918 38.3223 30.1241 36.8402L30.7755 36.1232C31.287 35.6423 31.921 34.6674 32.4237 34.1996C33.709 33.5307 36.096 31.8607 38.5967 30.1994C39.6722 29.4868 40.7564 28.7829 41.3685 28.4507L44.3063 33.3121C42.4745 34.5013 37.7836 38.4578 36.1266 39.8699C35.6064 40.3071 36.2272 39.3365 35.7375 39.7999L32.2401 42.9433C29.8268 44.9854 27.1471 46.69 24.2746 48.0102L21.3324 44.2723Z" fill="url(#paint4_linear_1_9451)"/>
<path d="M58.9542 27.397C66.1109 40.9496 49.8214 47.2975 41.2745 37.9505C37.6897 33.4432 37.2743 31.1698 35.0272 28.8615C25.4092 19.5277 11.5811 25.3291 4.38513 37.0281C5.34256 35.8827 11.4238 28.9446 20.2679 30.0332C27.1055 30.9075 28.2203 39.6512 38.3323 44.8055C49.8083 50.6813 70.4389 42.7464 58.9542 27.397Z" fill="url(#paint5_linear_1_9451)"/>
<g style="mix-blend-mode:darken" opacity="0.57">
<path d="M38.6369 44.4732C28.5249 39.3057 27.4057 30.5534 20.5725 29.7009C12.1349 28.6341 6.2111 34.9121 4.85583 36.5034C6.64828 34.5273 12.3491 29.0713 20.2665 30.0637C27.104 30.9162 28.2188 39.6817 38.3309 44.8317C45.4394 48.4603 56.0499 46.799 60.3779 41.3605C55.875 46.5105 45.5793 48.0188 38.6369 44.4732Z" fill="#AAADB1"/>
</g>
<g style="mix-blend-mode:soft-light">
<path d="M59.3026 27.8383C59.1889 27.6765 59.0752 27.5148 58.9528 27.353C65.9477 40.6171 50.4802 46.9912 41.8109 38.4618C50.3666 47.2492 66.0133 41.0237 59.3026 27.8383Z" fill="#516389"/>
</g>
<path d="M95.6547 25.211C95.5345 25.1618 95.4101 25.1238 95.2831 25.0973C94.2775 24.8394 91.7856 24.7563 90.9812 25.4121L90.9375 25.4514C90.8045 25.5758 90.6963 25.7241 90.6183 25.8886C88.2819 28.9897 86.1217 32.2197 84.148 35.5634L78.128 25.9061L78.1062 25.858C78.0263 25.6924 77.9149 25.5439 77.7783 25.4208L77.7346 25.3858C77.0351 24.8044 74.941 24.8219 73.7999 25.0186C73.5292 25.0471 73.2633 25.1103 73.0086 25.2066C72.7877 25.301 72.5987 25.4573 72.4645 25.6566C72.3303 25.856 72.2566 26.0899 72.2523 26.3302V46.7072C72.2523 47.1138 72.4403 47.8264 73.6994 48.0188C74.1181 48.0752 74.5404 48.1015 74.9629 48.0975C75.8372 48.0975 77.6777 48.0975 77.6777 46.7072V34.9558C78.0712 35.5766 78.8188 36.7919 79.6451 38.3177C80.7934 40.4424 81.5643 41.8312 81.9578 42.484L82.1895 42.9212C82.3963 43.2357 82.6602 43.5085 82.9677 43.7256C83.6254 44.1159 84.4082 44.238 85.1536 44.0666C85.3379 44.017 85.5104 43.9308 85.6607 43.8131C85.9971 43.5878 86.2928 43.3069 86.5351 42.9824L87.0597 42.0643C87.3132 41.6184 87.9078 40.5153 88.8434 38.7549C89.779 36.9945 90.4916 35.7106 90.9812 34.9033C90.9812 34.9033 90.9812 37.1111 90.9812 37.2379V46.7203C90.9812 48.1106 92.813 48.1106 93.6917 48.1106C94.5705 48.1106 96.4066 48.1106 96.4066 46.7203V26.3345C96.4027 26.0948 96.3297 25.8612 96.1963 25.6619C96.0629 25.4626 95.8748 25.306 95.6547 25.211Z" fill="#516389"/>
<path d="M102.241 33.2993C100.492 33.2993 100.274 33.6097 100.274 33.9463V46.9569C100.274 47.2935 100.51 47.6039 102.241 47.6039C103.972 47.6039 104.208 47.2935 104.208 46.9569V33.9463C104.208 33.6097 103.968 33.2993 102.241 33.2993Z" fill="#516389"/>
<path d="M102.245 48.3472C101.37 48.3472 99.5297 48.3472 99.5297 46.9569V33.9464C99.5297 32.5561 101.361 32.5562 102.245 32.5562C103.128 32.5562 104.955 32.5561 104.955 33.9464V46.9569C104.955 48.3472 103.123 48.3472 102.245 48.3472ZM101.02 46.7602C101.83 46.8885 102.655 46.8885 103.464 46.7602V34.1431C102.655 34.0149 101.83 34.0149 101.02 34.1431V46.7602Z" fill="#516389"/>
<path d="M122.066 25.936H110.734C109.545 25.9754 108.942 26.0847 108.942 26.5743V46.9557C108.942 47.2924 109.178 47.6028 110.896 47.6028C112.614 47.6028 112.85 47.2924 112.85 46.9557V38.54H120.951C121.576 38.54 121.979 37.8274 121.979 36.7301C121.979 35.6327 121.576 34.9201 120.951 34.9201H112.85V29.5515H122.066C122.691 29.5515 123.098 28.8433 123.098 27.746C123.098 26.6486 122.696 25.936 122.066 25.936Z" fill="#516389"/>
<path d="M110.896 48.347C110.021 48.347 108.194 48.347 108.194 46.9568V26.5753C108.194 25.2638 109.711 25.2245 110.712 25.1938H122.079C122.896 25.1938 123.854 25.8627 123.854 27.747C123.854 29.6312 122.896 30.3001 122.079 30.3001H113.593V34.1779H120.951C121.768 34.1779 122.726 34.8468 122.726 36.7311C122.726 38.6153 121.768 39.2842 120.951 39.2842H113.593V46.9568C113.593 48.347 111.77 48.347 110.896 48.347ZM109.685 46.76C110.487 46.8883 111.304 46.8883 112.107 46.76V37.8153H120.951C121.029 37.7891 121.235 37.4743 121.235 36.7529C121.235 36.0316 121.029 35.7168 120.955 35.6862H112.107V28.8093H122.066C122.114 28.8093 122.35 28.5252 122.35 27.747C122.35 26.9688 122.114 26.6978 122.074 26.6803V25.9371V26.6803H110.738C110.385 26.683 110.032 26.7151 109.685 26.7764V46.76Z" fill="#516389"/>
<path d="M151.692 25.936C149.969 25.936 149.737 26.2727 149.737 26.6006V40.0439L140.456 26.3164L140.412 26.2639C139.975 25.8267 137.558 25.9011 137.002 26.1328C136.899 26.1615 136.808 26.2224 136.742 26.3065C136.676 26.3907 136.639 26.4937 136.635 26.6006V46.9295C136.635 47.1481 136.635 47.594 138.594 47.594C140.552 47.594 140.548 47.1569 140.548 46.9295V33.4862L149.829 47.1962C150.048 47.4979 150.852 47.6028 151.635 47.6028C152.151 47.6144 152.666 47.563 153.169 47.4498C153.563 47.323 153.646 47.0956 153.646 46.9295V26.6006C153.646 26.2727 153.414 25.936 151.692 25.936Z" fill="#516389"/>
<path d="M151.635 48.347C149.934 48.347 149.449 47.9361 149.226 47.63L141.3 35.9179V46.9305C141.3 48.3426 139.477 48.3426 138.603 48.3426C137.728 48.3426 135.901 48.3426 135.901 46.9305V26.6016C135.904 26.3474 135.985 26.1003 136.133 25.8933C136.281 25.6863 136.488 25.5292 136.727 25.443C137.287 25.2113 140.137 24.9272 140.95 25.736L141.086 25.9021L148.999 37.6098V26.6016C148.999 25.1938 150.892 25.1938 151.701 25.1938C152.509 25.1938 154.398 25.1938 154.398 26.6016V46.9305C154.388 47.2153 154.286 47.4892 154.107 47.7109C153.928 47.9325 153.682 48.0898 153.406 48.159C152.826 48.2966 152.231 48.3597 151.635 48.347ZM150.402 46.712C150.802 46.8291 151.219 46.8778 151.635 46.8562C152.06 46.863 152.485 46.8279 152.903 46.7513V26.7852C152.101 26.6453 151.282 26.6453 150.481 26.7852V42.4757L139.897 26.8158C139.066 26.664 138.214 26.664 137.383 26.8158V46.7688C138.183 46.9091 139.001 46.9091 139.8 46.7688V31.0608L150.402 46.712Z" fill="#516389"/>
<path d="M160.782 25.9321C159.055 25.9321 158.815 26.2425 158.815 26.5748V46.9562C158.815 47.2928 159.055 47.6032 160.782 47.6032C162.509 47.6032 162.75 47.2928 162.75 46.9562V26.5748C162.75 26.2425 162.514 25.9321 160.782 25.9321Z" fill="#516389"/>
<path d="M160.781 48.346C159.907 48.346 158.071 48.346 158.071 46.9557V26.5743C158.071 25.1841 159.902 25.1841 160.781 25.1841C161.66 25.1841 163.496 25.1841 163.496 26.5743V46.9557C163.496 48.346 161.664 48.346 160.781 48.346ZM159.561 46.759C160.371 46.8873 161.196 46.8873 162.005 46.759V26.7711C161.602 26.6935 161.192 26.6612 160.781 26.6749C160.372 26.6608 159.963 26.6931 159.561 26.7711V46.759Z" fill="#516389"/>
<path d="M129.417 25.9321C127.69 25.9321 127.45 26.2425 127.45 26.5748V46.9562C127.45 47.2928 127.69 47.6032 129.417 47.6032C131.144 47.6032 131.384 47.2928 131.384 46.9562V26.5748C131.384 26.2425 131.148 25.9321 129.417 25.9321Z" fill="#516389"/>
<path d="M129.42 48.346C128.546 48.346 126.709 48.346 126.709 46.9557V26.5743C126.709 25.1841 128.541 25.1841 129.42 25.1841C130.299 25.1841 132.13 25.1841 132.13 26.5743V46.9557C132.122 48.346 130.299 48.346 129.42 48.346ZM128.196 46.759C129.007 46.8872 129.833 46.8872 130.644 46.759V26.7711C129.833 26.6428 129.007 26.6428 128.196 26.7711V46.759Z" fill="#516389"/>
<path d="M183.707 25.936H167.829C167.492 25.936 167.182 26.1721 167.182 27.8902C167.182 29.6084 167.492 29.8444 167.829 29.8444H173.81V46.9557C173.81 47.2924 174.046 47.6028 175.764 47.6028C177.482 47.6028 177.718 47.2924 177.718 46.9557V29.8444H183.707C184.04 29.8444 184.35 29.6084 184.35 27.8902C184.35 26.1721 184.035 25.936 183.707 25.936Z" fill="#516389"/>
<path d="M175.764 48.347C174.89 48.347 173.067 48.347 173.067 46.9568V30.593H167.821C166.426 30.593 166.426 28.7656 166.426 27.8913C166.426 27.0169 166.426 25.1938 167.821 25.1938H183.708C185.098 25.1938 185.098 27.0169 185.098 27.8913C185.098 28.7656 185.098 30.593 183.708 30.593H178.462V46.9568C178.462 48.347 176.643 48.347 175.764 48.347ZM174.553 46.76C175.356 46.8883 176.173 46.8883 176.975 46.76V29.1023H183.507C183.635 28.3 183.635 27.4825 183.507 26.6803H168.022C167.894 27.4825 167.894 28.3 168.022 29.1023H174.553V46.76Z" fill="#516389"/>
<path d="M206.388 26.1377C205.657 25.8841 202.916 25.8186 202.396 26.4656L197.452 34.1644L192.494 26.4743C192.017 25.836 189.285 25.8841 188.559 26.1333C188.148 26.2689 188.061 26.5006 188.061 26.6754V26.7847L195.493 38.3744V46.882C195.493 47.0656 195.493 47.6208 197.46 47.6208C199.428 47.6208 199.428 47.0656 199.428 46.882V38.3744L206.86 26.7847V26.6754C206.877 26.5049 206.777 26.2776 206.388 26.1377Z" fill="#516389"/>
<path d="M197.444 48.3647C196.771 48.3647 194.733 48.3647 194.733 46.8826V38.5762L187.301 26.9865V26.663C187.307 26.3726 187.408 26.0924 187.59 25.8661C187.772 25.6398 188.024 25.4803 188.307 25.4126C189.024 25.1722 192.263 24.9186 193.085 26.0159L193.116 26.0597L197.448 32.7791L201.82 25.9897C202.694 24.9099 205.956 25.1853 206.629 25.4257C206.903 25.4994 207.145 25.6597 207.32 25.8828C207.495 26.1058 207.593 26.3795 207.6 26.663V26.9908L200.167 38.5805V46.887C200.154 48.3647 198.135 48.3647 197.444 48.3647ZM196.22 46.7384C197.024 46.919 197.859 46.919 198.664 46.7384V38.1521L205.969 26.7854C205.204 26.628 203.389 26.6717 202.979 26.934L197.457 35.5421L191.909 26.9471C191.498 26.6848 189.723 26.6367 188.941 26.7985L196.22 38.1652V46.7384Z" fill="#516389"/>
<path d="M102.878 25.3813H101.422C100.247 25.3813 99.2933 26.3346 99.2933 27.5104V29.0056C99.2933 30.1814 100.247 31.1347 101.422 31.1347H102.878C104.054 31.1347 105.007 30.1814 105.007 29.0056V27.5104C105.007 26.3346 104.054 25.3813 102.878 25.3813Z" fill="#516389"/>
</g>
<defs>
<linearGradient id="paint0_linear_1_9451" x1="63.4679" y1="42.9506" x2="29.2038" y2="31.786" gradientUnits="userSpaceOnUse">
<stop offset="0.01" stop-color="#4B5162"/>
<stop offset="1" stop-color="#646B7E"/>
</linearGradient>
<linearGradient id="paint1_linear_1_9451" x1="28.0051" y1="33.0336" x2="61.2555" y2="33.3818" gradientUnits="userSpaceOnUse">
<stop offset="0.01" stop-color="#FFA220"/>
<stop offset="0.04" stop-color="#FFA61C"/>
<stop offset="0.34" stop-color="#FFC000"/>
<stop offset="0.61" stop-color="#FDC200"/>
<stop offset="0.74" stop-color="#F6C900"/>
<stop offset="0.75" stop-color="#F5CB00"/>
<stop offset="0.78" stop-color="#F3C200"/>
<stop offset="0.84" stop-color="#F0B100"/>
<stop offset="0.89" stop-color="#EFAB00"/>
<stop offset="1" stop-color="#B74600"/>
</linearGradient>
<linearGradient id="paint2_linear_1_9451" x1="38.8831" y1="52.211" x2="3.22161" y2="38.2505" gradientUnits="userSpaceOnUse">
<stop offset="0.01" stop-color="#4B5162"/>
<stop offset="1" stop-color="#646B7E"/>
</linearGradient>
<linearGradient id="paint3_linear_1_9451" x1="14.0483" y1="47.7204" x2="2.17408" y2="46.5187" gradientUnits="userSpaceOnUse">
<stop offset="0.01" stop-color="#3B3B3B"/>
<stop offset="1" stop-color="#797979"/>
</linearGradient>
<linearGradient id="paint4_linear_1_9451" x1="31.9633" y1="15.9879" x2="10.2693" y2="28.5123" gradientUnits="userSpaceOnUse">
<stop offset="0.11" stop-color="white"/>
<stop offset="0.61" stop-color="#878787"/>
<stop offset="0.95" stop-color="white"/>
</linearGradient>
<linearGradient id="paint5_linear_1_9451" x1="67.8465" y1="48.9282" x2="8.56896" y2="21.5387" gradientUnits="userSpaceOnUse">
<stop offset="0.01" stop-color="#4B5162"/>
<stop offset="1" stop-color="#646B7E"/>
</linearGradient>
<clipPath id="clip0_1_9451">
<rect width="205" height="28.0964" fill="white" transform="translate(2.59998 23.4517)"/>
</clipPath>
</defs>
</svg>
