<svg width="173" height="75" viewBox="0 0 173 75" fill="none" xmlns="http://www.w3.org/2000/svg">
<path d="M7.62051 54.4731V25.9358C7.62051 23.3529 9.7257 21.4768 12.5674 21.4768C15.4092 21.4768 17.0669 22.5417 18.3298 24.8949L25.7761 39.151H25.8812V22.0139H34.2225V50.2724C34.2555 50.8627 34.1673 51.4534 33.963 52.0109C33.7587 52.5684 33.4422 53.0816 33.0317 53.5214C32.6212 53.9611 32.1246 54.3187 31.5704 54.5737C31.0162 54.8287 30.4153 54.9761 29.8018 55.0075C27.6441 55.0075 26.0673 54.0452 23.8542 49.9183L16.0932 35.4573H15.988V54.4478H7.61981L7.62051 54.4731ZM49.3793 45.5599L46.2478 40.7489L52.9562 36.4443C52.0237 35.8453 50.9189 35.544 49.7984 35.5831C46.4304 35.5831 44.5887 38.9506 44.5887 41.839C44.5887 44.8524 46.8018 47.9917 50.1145 47.9917C53.1934 47.9917 56.1929 45.3329 57.4294 42.5225L63.2976 45.4853C60.9558 51.0051 55.7191 55.0062 49.5349 55.0062C42.6937 55.0062 36.6942 49.2329 36.6942 42.2443C36.6942 35.2304 42.6675 29.4823 49.5349 29.4823C55.271 29.4823 59.0339 32.4958 61.718 37.2556L49.3793 45.5599ZM71.1927 42.2429C71.1927 39.4325 73.2979 37.0772 76.1659 37.0772C79.034 37.0772 81.1392 39.4318 81.1392 42.2429C81.1392 45.0541 79.034 47.4087 76.1659 47.4087C73.2979 47.4087 71.1927 45.0541 71.1927 42.2429ZM63.2989 42.2429C63.2989 49.2568 69.2985 55.0049 76.1659 55.0049C83.0334 55.0049 89.033 49.2335 89.033 42.2456C89.033 35.2317 83.0334 29.4837 76.1659 29.4837C69.2985 29.4837 63.2989 35.2291 63.2989 42.2456V42.2429ZM90.717 47.5098H98.4794C99.4268 47.5098 99.9006 47.054 99.9006 46.421C99.9006 44.1423 90.9791 45.0028 90.9791 37.0526C90.9791 32.5204 95.0048 30.241 98.8466 30.241H106.689V36.6473H100.374C99.4262 36.6473 98.7138 37.1285 98.7138 37.7866C98.7138 39.7113 108.134 40.1925 108.134 46.6493C108.134 51.5362 105.002 54.1949 99.7139 54.1949H90.6886V47.5098H90.717ZM118.609 44.0917C118.609 46.1682 119.688 47.4593 121.45 47.4593C123.213 47.4593 124.292 46.1682 124.292 44.0917V30.2663H132.266V44.0917C132.266 50.3476 128.503 55.0302 121.451 55.0302C114.425 55.0302 110.637 50.3715 110.637 44.0917V30.2663H118.609V44.0917ZM141.738 34.2674H141.843C143.053 30.8733 145.37 30.267 148.869 30.267V37.4539C143.29 37.6535 142.79 38.8215 142.79 42.9737V54.2162H134.739V30.2663H141.738L141.738 34.2674ZM150.553 54.2202V28.5187C150.553 23.5559 154.552 19.8843 160.868 19.8843H165.501V27.0499H161.604C159.499 27.0499 158.976 28.1892 158.976 30.1898H163.87V37.3554H158.973V54.2189L150.553 54.2202Z" fill="#516389"/>
</svg>
