<svg width="211" height="75" viewBox="0 0 211 75" fill="none" xmlns="http://www.w3.org/2000/svg">
<g clip-path="url(#clip0_1_9511)">
<path d="M191.903 24.5826C189.611 23.0219 186.173 22.2329 181.662 22.2329H169.836L165.439 46.1429H149.941L150.938 40.7177H160.274L161.383 34.6269H152.053L153.049 29.2246H162.666L163.944 22.2329H144.418L140.242 44.9121H133.08L137.282 22.2329H127.076L122.905 44.9121H115.921L120.129 22.2329H109.931L105.525 46.1429H89.9154L90.9037 40.7177H100.274L101.383 34.6613H92.0209L93.0035 29.2389H102.743L104.004 22.2329H43.1585L39.7037 41.1681L32.8056 22.2329H22.2064L16.5172 53.1518H26.6294L30.067 33.6859L36.7617 53.1518H73.0168L77.4226 29.2389H83.0918L78.6802 53.1518H174.045L176.809 38.0553L181.283 53.1518H191.401L186.766 40.8153L187.824 40.5943C190.158 40.0951 191.98 39.0164 193.249 37.404C194.518 35.7917 195.16 33.6744 195.16 31.1698C195.168 28.2377 194.103 26.0859 191.903 24.5826ZM64.2137 46.1429H48.7446L49.7443 40.7177H59.4555L60.5584 34.6068H50.9274L51.8556 29.2389H67.3247L64.2137 46.1429ZM183.561 35.7171C182.544 36.4286 181.069 36.7757 179.052 36.7757H177.047L178.579 28.4787H180.052C181.728 28.4787 182.948 28.7483 183.79 29.2992C184.449 29.7267 185.222 30.5788 185.222 32.1911C185.245 34.1449 184.329 35.1892 183.561 35.7171Z" fill="#516389"/>
</g>
<defs>
<clipPath id="clip0_1_9511">
<rect width="179" height="32.1557" fill="white" transform="translate(16.4 21.4224)"/>
</clipPath>
</defs>
</svg>
