<svg width="211" height="75" viewBox="0 0 211 75" fill="none" xmlns="http://www.w3.org/2000/svg">
<g clip-path="url(#clip0_1_9499)">
<path d="M148.477 31.7966C148.645 30.8252 148.779 30.3226 148.812 29.7866C148.846 26.6377 148.008 23.8236 145.06 22.2827C142.012 20.6746 138.829 21.0766 136.283 23.2541C131.928 27.0061 130.086 31.9641 131.057 37.6592C131.828 42.1482 136.216 44.3926 140.27 42.3156C142.447 41.2101 144.424 39.5017 146.166 37.7597C149.047 34.8787 151.693 31.7966 154.407 28.7481C156.249 26.6711 158.46 25.2641 161.241 24.8957C165.261 24.3262 168.878 26.4702 169.816 30.4232C170.989 35.2806 170.386 39.9372 167.371 44.1247C164.356 48.3457 157.924 50.7912 152.598 46.1011C151.794 49.8866 150.99 53.5382 150.186 57.2566C148.142 57.2566 146.166 57.2566 144.055 57.2566C144.591 54.6436 145.094 52.1646 145.63 49.6522C145.697 49.3507 145.864 49.0156 146.065 48.7812C148.544 46.0006 151.057 43.2536 153.603 40.4731C153.77 40.6742 153.871 40.7411 153.904 40.8417C154.742 42.6842 155.948 44.1247 158.159 44.0911C160.47 44.0242 161.944 42.5837 162.882 40.6071C163.954 38.2956 164.624 35.8837 164.29 33.3042C164.055 31.3611 162.547 30.2557 160.872 31.2271C158.762 32.4666 156.718 34.0412 155.043 35.8166C152.799 38.1952 150.856 40.9086 148.846 43.4881C144.759 48.6806 139.231 49.4847 133.302 48.1446C128.042 46.9386 124.692 42.6842 124.491 36.5871C124.257 29.9877 126.233 23.9911 131.593 19.6361C136.618 15.5491 144.558 14.8791 149.449 18.1286C150.588 18.8991 151.66 19.8706 152.497 20.9426C155.077 24.1587 155.01 25.0632 152.263 28.1117C151.459 29.0161 150.621 29.9542 149.784 30.8252C149.516 31.0931 149.114 31.3276 148.477 31.7966Z" fill="#516389"/>
<path d="M43.3867 47.8421C45.5977 37.2896 47.8088 26.8711 49.9863 16.4526C55.2792 16.4526 60.5388 16.1176 65.7313 16.5531C71.2253 16.9886 73.7712 21.5781 72.2302 27.2397C70.6558 32.9681 67.0042 35.5811 60.0362 35.7822C57.5238 35.8491 55.0448 35.7822 52.4318 35.7822C51.9627 37.9261 51.5272 39.9026 51.0917 41.9126C50.6562 43.8556 50.2543 45.8321 49.8523 47.8421C47.7752 47.8421 45.7317 47.8421 43.3867 47.8421ZM53.4368 30.7906C56.4853 30.5562 59.1318 30.4891 61.7782 30.0871C64.4248 29.6851 66.2672 27.1726 66.1332 24.5931C66.0328 22.9851 65.2622 21.8797 63.6542 21.7457C60.9407 21.5111 58.2273 21.4442 55.4803 21.3437C54.7768 24.5596 54.1402 27.5076 53.4368 30.7906Z" fill="#516389"/>
<path d="M75.6814 30.9254C76.6195 28.1449 78.3281 26.3695 80.8405 25.3979C84.023 24.1585 87.2724 24.1249 90.522 25.1299C93.47 26.0344 95.011 28.4799 94.5755 31.5955C94.1735 34.443 93.4365 37.2904 93.001 40.138C92.6326 42.5835 92.4986 45.0625 92.2306 47.7424C90.79 47.7424 88.9475 47.7424 86.8706 47.7424C86.7031 47.1394 86.502 46.4024 86.2676 45.5314C85.7985 45.9 85.3295 46.2684 84.8605 46.6035C82.683 48.2115 80.2375 48.8145 77.5911 48.1109C74.8775 47.374 73.169 44.9619 73.0685 41.9805C72.9344 38.8984 74.509 36.1179 77.3231 35.2804C79.869 34.5434 82.549 34.3425 85.1955 33.8735C85.7315 33.773 86.301 33.6389 86.8369 33.6389C88.2105 33.6389 88.646 32.8349 88.7466 31.6289C88.8135 30.423 88.3111 29.6189 87.172 29.1499C85.2626 28.3459 83.1185 29.0159 81.879 30.7245C81.6446 31.026 81.276 31.2605 80.9076 31.3945C80.673 31.4949 80.3715 31.3274 80.1035 31.294C78.6965 31.1934 77.256 31.0594 75.6814 30.9254ZM87.4401 37.0895C85.1286 37.6255 82.9845 37.9605 80.9411 38.5969C79.1991 39.1329 78.5961 40.4729 79.065 41.9805C79.5005 43.3539 80.9411 44.0574 82.5825 43.7225C85.5975 43.153 86.904 41.411 87.4401 37.0895Z" fill="#516389"/>
<path d="M98.0586 57.1561C99.7002 54.2415 101.241 51.6285 102.615 48.9151C103.05 48.0441 103.218 46.9051 103.084 45.9336C102.012 39.2671 100.806 32.634 99.6331 26.001C99.5996 25.733 99.5996 25.4651 99.5662 25.13C101.576 25.13 103.519 25.13 105.663 25.13C106.4 30.6575 107.137 36.2186 107.874 41.7461C110.152 37.4245 112.631 33.237 114.574 28.8151C115.914 25.733 117.757 24.4265 121.04 25.0296C121.643 25.13 122.246 25.0296 123.016 25.0296C122.882 25.398 122.849 25.733 122.715 25.9676C116.852 35.9506 110.956 45.9336 105.094 55.9166C104.591 56.7876 104.022 57.1896 102.983 57.1225C101.409 57.0891 99.8677 57.1561 98.0586 57.1561Z" fill="#516389"/>
<path d="M40.9414 59.5674C41.31 57.859 41.6449 56.2845 41.9799 54.7099C60.8739 53.8724 79.6339 53.0685 98.5949 52.231C97.7575 53.8055 97.0874 55.2124 96.2499 56.4854C95.9819 56.8874 95.2783 57.1889 94.7759 57.2224C84.2905 57.725 73.8049 58.1939 63.3195 58.6629C56.4519 58.9644 49.6179 59.2659 42.7505 59.5674C42.2144 59.5674 41.6449 59.5674 40.9414 59.5674Z" fill="#516389"/>
</g>
<defs>
<clipPath id="clip0_1_9499">
<rect width="131" height="44.3233" fill="white" transform="translate(40 15.3384)"/>
</clipPath>
</defs>
</svg>
