<svg width="211" height="75" viewBox="0 0 211 75" fill="none" xmlns="http://www.w3.org/2000/svg">
<path d="M134.137 25.7248C136.901 25.7248 139.138 23.3784 139.138 20.4851C139.138 17.5917 136.899 15.2407 134.137 15.2407C131.375 15.2407 129.141 17.5902 129.141 20.4851C129.141 21.1733 129.27 21.8548 129.521 22.4907C129.772 23.1266 130.14 23.7044 130.604 24.1911C131.068 24.6778 131.619 25.0639 132.225 25.3274C132.831 25.5908 133.481 25.7264 134.137 25.7264V25.7248ZM95.8353 28.5509C95.6095 29.162 93.9853 33.9587 90.0567 38.9434V17.6238L79.5904 19.7931V58.442H90.0581V46.496C93.0909 51.2622 94.5884 58.442 94.5884 58.442H107.126C105.888 53.0342 100.462 43.0664 100.462 43.0664C103.686 38.7058 106.17 33.7962 107.808 28.5525L95.8353 28.5509ZM123.352 28.1476C113.978 28.4639 109.218 32.8741 109.218 41.6427V58.4405H119.447V44.7438C119.447 39.4949 120.102 37.2584 126.042 37.0293V28.3065C125.043 28.0835 123.352 28.1538 123.352 28.1538V28.1476ZM62.0374 32.813C60.7556 32.7259 57.7868 32.5228 57.7868 29.7211C57.7868 26.3405 62.0593 26.3405 63.6631 26.3405C66.4818 26.3405 70.1307 27.2112 72.7382 28.0315C73.6262 28.4189 74.5238 28.7816 75.4301 29.1192L75.5467 29.1528V19.8893L75.3894 19.8404C72.3129 18.71 68.7367 17.6253 62.1044 17.6253C50.6695 17.6253 46.6199 24.6097 46.6199 30.5949C46.6199 34.0443 48.03 42.1636 61.1241 43.1001C62.2341 43.1719 65.1795 43.3491 65.1795 46.247C65.1795 48.6377 62.7672 50.0477 58.7118 50.0477C54.269 50.0477 49.9528 48.8592 47.3352 47.7318V57.2688C51.2565 58.3458 55.6761 58.885 60.8575 58.885C72.0375 58.885 77.0441 52.2765 77.0441 45.726C77.0441 38.2987 71.4418 33.4745 62.0403 32.813H62.0374ZM129.071 58.4466H139.215V28.5876H129.068L129.071 58.4466ZM158.318 19.5303V58.4466H168.465V17.6284L158.318 19.5303ZM143.514 19.5303L153.649 17.6284V58.4466H143.514V19.5272V19.5303Z" fill="#516389"/>
</svg>
