<svg width="173" height="75" viewBox="0 0 173 75" fill="none" xmlns="http://www.w3.org/2000/svg">
<path d="M78.2704 58.1519H67.6425L74.2882 17.0596H84.9128L78.2704 58.1519Z" fill="#516389"/>
<path d="M116.784 18.0661C113.744 16.8952 110.512 16.3019 107.254 16.3167C96.7618 16.3167 89.3726 21.9116 89.3275 29.9118C89.2404 35.814 94.6181 39.0914 98.6393 41.0601C102.75 43.071 104.147 44.3832 104.147 46.1763C104.106 48.9295 100.825 50.1981 97.7662 50.1981C94.3135 50.2948 90.8898 49.5443 87.7941 48.0122L86.3947 47.3557L84.9081 56.5802C87.3998 57.7154 91.9915 58.7233 96.7577 58.7676C107.907 58.7676 115.164 53.2591 115.249 44.7339C115.291 40.0563 112.452 36.4716 106.334 33.5428C102.617 31.6626 100.342 30.3946 100.342 28.4708C100.385 26.7221 102.267 24.9304 106.462 24.9304C109.185 24.8507 111.891 25.3885 114.377 26.5034L115.338 26.9399L116.783 18.0669L116.784 18.0661Z" fill="#516389"/>
<path d="M130.907 43.594C131.782 41.233 135.149 32.0969 135.149 32.0969C135.104 32.1848 136.022 29.6925 136.547 28.163L137.289 31.7034C137.289 31.7034 139.301 41.5394 139.738 43.594H130.907ZM144.022 17.0596H135.804C133.269 17.0596 131.344 17.8019 130.25 20.4692L114.467 58.1513H125.614C125.614 58.1513 127.45 53.0794 127.845 51.987H141.486C141.792 53.43 142.754 58.1513 142.754 58.1513H152.595L144.022 17.0596Z" fill="#516389"/>
<path d="M58.7688 17.0605L48.3622 45.0814L47.225 39.3988C45.3012 32.8416 39.2678 25.7171 32.535 22.1741L42.0659 58.1093H53.3021L70.003 17.0605H58.7688Z" fill="#516389"/>
<path d="M38.7008 17.0604H21.6063L21.4313 17.8907C34.7661 21.3009 43.5977 29.5204 47.2267 39.4001L43.5106 20.5125C42.8991 17.888 41.0189 17.1443 38.7014 17.0586L38.7008 17.0604Z" fill="#516389"/>
</svg>
