<svg width="28" height="30" viewBox="0 0 28 30" fill="none" xmlns="http://www.w3.org/2000/svg">
<path d="M13.9987 22.4784C14.643 22.4784 15.1654 21.956 15.1654 21.3117C15.1654 20.6674 14.643 20.145 13.9987 20.145C13.3544 20.145 12.832 20.6674 12.832 21.3117C12.832 21.956 13.3544 22.4784 13.9987 22.4784Z" fill="#6CA4FF"/>
<path d="M22.2473 4.89652C20.6159 3.26455 18.5371 2.15306 16.2739 1.70261C14.0106 1.25217 11.6647 1.483 9.53268 2.36592C7.40067 3.24884 5.57837 4.74418 4.29627 6.66283C3.01416 8.58148 2.32983 10.8373 2.32983 13.1449C2.32983 15.4525 3.01416 17.7082 4.29627 19.6269C5.57837 21.5455 7.40067 23.0409 9.53268 23.9238C11.6647 24.8067 14.0106 25.0375 16.2739 24.5871C18.5371 24.1366 20.6159 23.0251 22.2473 21.3932C24.4345 19.2054 25.6632 16.2384 25.6632 13.1449C25.6632 10.0513 24.4345 7.08434 22.2473 4.89652ZM18.9457 16.4465C19.0678 16.5511 19.167 16.6798 19.237 16.8246C19.307 16.9693 19.3464 17.127 19.3526 17.2876C19.3588 17.4483 19.3317 17.6085 19.2731 17.7582C19.2144 17.9079 19.1254 18.0439 19.0118 18.1576C18.8981 18.2713 18.7621 18.3603 18.6124 18.4189C18.4627 18.4776 18.3024 18.5047 18.1418 18.4984C17.9811 18.4922 17.8234 18.4529 17.6787 18.3829C17.534 18.3128 17.4052 18.2136 17.3007 18.0915L13.999 14.7899L10.6973 18.0915C10.5927 18.2136 10.464 18.3128 10.3193 18.3829C10.1745 18.4529 10.0169 18.4922 9.85622 18.4984C9.69555 18.5047 9.53533 18.4776 9.38562 18.4189C9.2359 18.3603 9.09993 18.2713 8.98623 18.1576C8.87254 18.0439 8.78357 17.9079 8.72492 17.7582C8.66626 17.6085 8.63919 17.4483 8.64539 17.2876C8.6516 17.127 8.69095 16.9693 8.76098 16.8246C8.83101 16.6798 8.9302 16.5511 9.05233 16.4465L12.354 13.1449L9.05233 9.84318C8.8612 9.62 8.76132 9.33291 8.77266 9.03929C8.784 8.74567 8.90573 8.46714 9.1135 8.25936C9.32128 8.05158 9.59981 7.92986 9.89343 7.91852C10.1871 7.90718 10.4741 8.00705 10.6973 8.19818L13.999 11.4999L17.3007 8.19818C17.4052 8.07606 17.534 7.97687 17.6787 7.90684C17.8234 7.83681 17.9811 7.79746 18.1418 7.79125C18.3024 7.78505 18.4627 7.81212 18.6124 7.87077C18.7621 7.92943 18.8981 8.0184 19.0118 8.13209C19.1254 8.24579 19.2144 8.38176 19.2731 8.53147C19.3317 8.68119 19.3588 8.84141 19.3526 9.00208C19.3464 9.16275 19.307 9.32041 19.237 9.46515C19.167 9.60989 19.0678 9.7386 18.9457 9.84318L15.644 13.1449L18.9457 16.4465Z" fill="#0554F1"/>
<path d="M13.9991 25.9782C11.0298 25.9745 8.15378 24.9413 5.86096 23.0548C3.56813 21.1682 2.00042 18.5449 1.42498 15.632C0.849532 12.7191 1.30196 9.69676 2.70516 7.08004C4.10836 4.46331 6.37551 2.41411 9.12027 1.28163C11.865 0.149156 14.9176 0.00347334 17.7577 0.869413C20.5978 1.73535 23.0498 3.55933 24.6959 6.03053C26.3419 8.50173 27.0801 11.4672 26.7846 14.4217C26.4892 17.3762 25.1785 20.1368 23.0757 22.2332C20.6662 24.6354 17.4014 25.9824 13.9991 25.9782ZM13.9991 2.64485C12.2717 2.64333 10.5706 3.06801 9.04657 3.88125C7.52257 4.69449 6.22275 5.87116 5.26233 7.30696C4.30192 8.74275 3.71057 10.3933 3.54071 12.1124C3.37085 13.8314 3.62773 15.5658 4.28857 17.1618C4.94941 18.7578 5.9938 20.1661 7.32917 21.2618C8.66453 22.3576 10.2496 23.107 11.9439 23.4436C13.6382 23.7802 15.3894 23.6936 17.0422 23.1914C18.695 22.6892 20.1984 21.7871 21.4191 20.5648C22.8856 19.0964 23.8842 17.2263 24.2886 15.1908C24.693 13.1552 24.485 11.0454 23.6911 9.12792C22.8971 7.21043 21.5527 5.57124 19.8277 4.41736C18.1027 3.26348 16.0744 2.64668 13.9991 2.64485Z" fill="#0554F1"/>
</svg>
