<svg width="32" height="32" viewBox="0 0 32 32" fill="none" xmlns="http://www.w3.org/2000/svg">
<path d="M16.1715 12.2219C16.6759 11.7152 17.3075 11.354 17.9999 11.1761V6C17.9999 5.46957 17.7892 4.96086 17.4141 4.58579C17.039 4.21071 16.5303 4 15.9999 4H6.9999C6.46947 4 5.96076 4.21071 5.58569 4.58579C5.21061 4.96086 4.9999 5.46957 4.9999 6V15C4.9999 15.5304 5.21061 16.0391 5.58569 16.4142C5.96076 16.7893 6.46947 17 6.9999 17H11.3934L16.1715 12.2219ZM13.9999 7C14.1977 7 14.391 7.05865 14.5555 7.16853C14.7199 7.27841 14.8481 7.43459 14.9238 7.61732C14.9995 7.80004 15.0193 8.00111 14.9807 8.19509C14.9421 8.38907 14.8469 8.56725 14.707 8.70711C14.5672 8.84696 14.389 8.9422 14.195 8.98079C14.001 9.01937 13.7999 8.99957 13.6172 8.92388C13.4345 8.84819 13.2783 8.72002 13.1684 8.55557C13.0585 8.39112 12.9999 8.19778 12.9999 8C12.9999 7.73478 13.1053 7.48043 13.2928 7.29289C13.4803 7.10536 13.7347 7 13.9999 7ZM13.9999 11C14.1977 11 14.391 11.0586 14.5555 11.1685C14.7199 11.2784 14.8481 11.4346 14.9238 11.6173C14.9995 11.8 15.0193 12.0011 14.9807 12.1951C14.9421 12.3891 14.8469 12.5673 14.707 12.7071C14.5672 12.847 14.389 12.9422 14.195 12.9808C14.001 13.0194 13.7999 12.9996 13.6172 12.9239C13.4345 12.8482 13.2783 12.72 13.1684 12.5556C13.0585 12.3911 12.9999 12.1978 12.9999 12C12.9999 11.7348 13.1053 11.4804 13.2928 11.2929C13.4803 11.1054 13.7347 11 13.9999 11ZM8.9999 7C9.19768 7 9.39102 7.05865 9.55547 7.16853C9.71992 7.27841 9.84809 7.43459 9.92378 7.61732C9.99947 7.80004 10.0193 8.00111 9.98069 8.19509C9.9421 8.38907 9.84686 8.56725 9.70701 8.70711C9.56715 8.84696 9.38897 8.9422 9.19499 8.98079C9.00101 9.01937 8.79994 8.99957 8.61722 8.92388C8.43449 8.84819 8.27831 8.72002 8.16843 8.55557C8.05855 8.39112 7.9999 8.19778 7.9999 8C7.9999 7.73478 8.10526 7.48043 8.29279 7.29289C8.48033 7.10536 8.73468 7 8.9999 7ZM8.9999 14C8.80212 14 8.60878 13.9414 8.44433 13.8315C8.27988 13.7216 8.15171 13.5654 8.07602 13.3827C8.00033 13.2 7.98053 12.9989 8.01912 12.8049C8.0577 12.6109 8.15294 12.4327 8.29279 12.2929C8.43265 12.153 8.61083 12.0578 8.80481 12.0192C8.99879 11.9806 9.19986 12.0004 9.38258 12.0761C9.56531 12.1518 9.72149 12.28 9.83137 12.4444C9.94125 12.6089 9.9999 12.8022 9.9999 13C9.9999 13.2652 9.89454 13.5196 9.70701 13.7071C9.51947 13.8946 9.26512 14 8.9999 14Z" fill="#FFFF5A"/>
<path d="M26.0712 17.8787L20.9542 12.7616C20.785 12.5918 20.5866 12.4539 20.3686 12.3545C19.1022 11.7803 17.7631 12.0446 16.8789 12.9295L11.7618 18.046C11.5921 18.2151 11.4542 18.4135 11.3547 18.6316C10.7806 19.898 11.0448 21.2371 11.9297 22.1212L17.0467 27.2383C17.2159 27.4081 17.4143 27.546 17.6323 27.6455C18.8987 28.2196 20.2378 27.9553 21.1219 27.0705L26.2391 21.9535C26.4088 21.7843 26.5467 21.5859 26.6462 21.3678C27.2198 20.102 26.9556 18.7625 26.0712 17.8787ZM19.0002 21C18.8024 21 18.6091 20.9413 18.4446 20.8314C18.2802 20.7215 18.152 20.5654 18.0763 20.3826C18.0006 20.1999 17.9808 19.9988 18.0194 19.8049C18.058 19.6109 18.1532 19.4327 18.2931 19.2929C18.4329 19.153 18.6111 19.0578 18.8051 19.0192C18.9991 18.9806 19.2002 19.0004 19.3829 19.0761C19.5656 19.1518 19.7218 19.2799 19.8317 19.4444C19.9415 19.6088 20.0002 19.8022 20.0002 20C20.0002 20.2652 19.8948 20.5195 19.7073 20.7071C19.5198 20.8946 19.2654 21 19.0002 21Z" fill="#FFFF5A"/>
</svg>
