<svg width="32" height="32" viewBox="0 0 32 32" fill="none" xmlns="http://www.w3.org/2000/svg">
<g clip-path="url(#clip0_135_530)">
<path d="M27.2158 11.2241C26.3524 10.0936 24.9524 9.64386 23.649 10.0782C22.174 10.5697 21.3222 11.4596 20.4979 12.3202C19.6843 13.1702 18.904 13.9836 17.4452 14.5549C18.0164 13.0959 18.8302 12.3157 19.6798 11.5021C20.5403 10.6771 21.4298 9.82548 21.9219 8.35098C22.3563 7.04773 21.9065 5.64773 20.776 4.78423C19.734 3.98823 17.972 3.57886 16 4.63611C14.028 3.57898 12.266 3.98836 11.2242 4.78423C10.0937 5.64773 9.64378 7.04773 10.0783 8.35098C10.5698 9.82598 11.4597 10.6777 12.3203 11.5021C13.1703 12.3157 13.9837 13.0959 14.5549 14.5549C13.0959 13.9836 12.3158 13.1699 11.5022 12.3202C10.6772 11.4596 9.82553 10.5702 8.35103 10.0782C7.04766 9.64373 5.64778 10.0935 4.78428 11.2241C3.98841 12.266 3.57891 14.0277 4.63616 16C3.57891 17.9722 3.98841 19.734 4.78428 20.7759C5.08198 21.178 5.46897 21.5056 5.91479 21.7327C6.36061 21.9599 6.85307 22.0805 7.35341 22.085C7.69257 22.0847 8.02946 22.0295 8.35103 21.9217C9.82603 21.4302 10.6778 20.5404 11.5022 19.6797C12.3158 18.8297 13.0959 18.0164 14.5549 17.4451C13.9837 18.9041 13.1699 19.6842 12.3203 20.4979C11.4597 21.3222 10.5703 22.1745 10.0783 23.649C9.64378 24.9522 10.0937 26.3522 11.2242 27.2157C12.266 28.0116 14.028 28.421 16 27.3639C16.7269 27.77 17.5434 27.9886 18.3759 28C19.2401 28.0078 20.0831 27.7324 20.7759 27.2157C21.9064 26.3522 22.3562 24.9522 21.9218 23.649C21.4302 22.174 20.5402 21.3222 19.6797 20.4979C18.8297 19.6842 18.0163 18.9041 17.445 17.4451C18.9039 18.0164 19.6842 18.8301 20.4978 19.6797C21.322 20.5404 22.1744 21.4297 23.649 21.9217C23.9706 22.0296 24.3074 22.0847 24.6465 22.085C25.1469 22.0805 25.6393 21.9599 26.0852 21.7327C26.531 21.5056 26.918 21.178 27.2157 20.7759C28.0115 19.734 28.4209 17.9722 27.3638 16C28.421 14.0277 28.0117 12.266 27.2158 11.2241Z" fill="white"/>
</g>
<defs>
<clipPath id="clip0_135_530">
<rect width="24" height="24" fill="white" transform="translate(4 4)"/>
</clipPath>
</defs>
</svg>
