<svg width="32" height="32" viewBox="0 0 32 32" fill="none" xmlns="http://www.w3.org/2000/svg">
<path d="M11 18H21C21.2652 18 21.5196 17.8946 21.7071 17.7071C21.8946 17.5196 22 17.2652 22 17V5C22 4.73478 21.8946 4.48043 21.7071 4.29289C21.5196 4.10536 21.2652 4 21 4H11C10.7348 4 10.4804 4.10536 10.2929 4.29289C10.1054 4.48043 10 4.73478 10 5V17C10 17.2652 10.1054 17.5196 10.2929 17.7071C10.4804 17.8946 10.7348 18 11 18ZM13.584 10.7226L15.584 7.72263C15.6297 7.65415 15.6915 7.598 15.7641 7.55917C15.8367 7.52033 15.9177 7.50001 16 7.50001C16.0823 7.50001 16.1633 7.52033 16.2359 7.55917C16.3085 7.598 16.3703 7.65415 16.416 7.72263L18.416 10.7226C18.4708 10.8048 18.5 10.9013 18.5 11C18.5 11.0987 18.4708 11.1952 18.416 11.2774L16.416 14.2774C16.3703 14.3459 16.3085 14.402 16.2359 14.4408C16.1633 14.4797 16.0823 14.5 16 14.5C15.9177 14.5 15.8367 14.4797 15.7641 14.4408C15.6915 14.402 15.6297 14.3459 15.584 14.2774L13.584 11.2774C13.5292 11.1952 13.5 11.0987 13.5 11C13.5 10.9013 13.5292 10.8048 13.584 10.7226Z" fill="white"/>
<path d="M22.375 23.3749C21.0703 24.2137 20.3909 25.0801 20.1296 25.2758C20.0433 25.3403 19.9385 25.3751 19.8308 25.3749H16.1183C16.0406 25.3749 15.9641 25.3568 15.8946 25.3222L14 23.9999C18 23.9999 18.527 22.5616 18.8545 21.6767C18.883 21.601 18.8926 21.5195 18.8827 21.4392C18.8728 21.359 18.8436 21.2823 18.7976 21.2158C18.7516 21.1492 18.6901 21.0949 18.6185 21.0573C18.5469 21.0197 18.4673 21 18.3864 20.9999H4V25.9999H9.882C9.95962 26 10.0362 26.018 10.1056 26.0527L13.8944 27.9472C13.9638 27.9818 14.0404 27.9999 14.118 27.9999H20.793C20.8587 27.9999 20.9237 27.987 20.9844 27.9619C21.0451 27.9367 21.1002 27.8999 21.1466 27.8534L25 23.9999C25.3535 23.6464 23.5646 22.6102 22.375 23.3749Z" fill="white"/>
</svg>
