<svg width="32" height="32" viewBox="0 0 32 32" fill="none" xmlns="http://www.w3.org/2000/svg">
<g clip-path="url(#clip0_135_509)">
<path d="M21 14.0001C19.6156 14.0001 18.2622 14.4106 17.1111 15.1798C15.9599 15.949 15.0627 17.0422 14.5329 18.3213C14.0031 19.6004 13.8644 21.0079 14.1345 22.3657C14.4046 23.7236 15.0713 24.9709 16.0503 25.9498C17.0293 26.9288 18.2765 27.5955 19.6344 27.8656C20.9923 28.1357 22.3997 27.9971 23.6788 27.4672C24.9579 26.9374 26.0512 26.0402 26.8203 24.8891C27.5895 23.7379 28 22.3846 28 21.0001C27.998 19.1442 27.2598 17.3649 25.9475 16.0526C24.6352 14.7403 22.8559 14.0022 21 14.0001ZM24 19.0001H20.5C20.3674 19.0001 20.2403 19.0528 20.1465 19.1465C20.0527 19.2403 20 19.3675 20 19.5001C20 19.6327 20.0527 19.7599 20.1465 19.8536C20.2403 19.9474 20.3674 20.0001 20.5 20.0001H21.5C22.12 19.9995 22.7181 20.2292 23.1782 20.6448C23.6383 21.0603 23.9276 21.632 23.9899 22.2488C24.0522 22.8657 23.8831 23.4837 23.5154 23.9828C23.1477 24.482 22.6076 24.8267 22 24.9501V26.0001H20V25.0001H18V23.0001H21.5C21.6327 23.0001 21.7598 22.9474 21.8536 22.8536C21.9474 22.7599 22 22.6327 22 22.5001C22 22.3675 21.9474 22.2403 21.8536 22.1465C21.7598 22.0528 21.6327 22.0001 21.5 22.0001H20.5C19.8801 22.0007 19.282 21.771 18.8219 21.3554C18.3618 20.9399 18.0725 20.3682 18.0102 19.7513C17.9479 19.1345 18.117 18.5165 18.4847 18.0174C18.8524 17.5182 19.3925 17.1735 20 17.0501V16.0001H22V17.0001H24V19.0001Z" fill="white"/>
<path d="M11.0001 15.0001C13.2092 15.0001 15.0001 13.2092 15.0001 11.0001C15.0001 8.79094 13.2092 7.00008 11.0001 7.00008C8.79094 7.00008 7.00008 8.79094 7.00008 11.0001C7.00008 13.2092 8.79094 15.0001 11.0001 15.0001Z" fill="white"/>
<path d="M15.0576 8.0801L16.7951 7.07722C16.2946 6.34082 15.6594 5.70577 14.9228 5.2056L13.9201 6.9431C14.3578 7.25857 14.7419 7.64248 15.0576 8.0801Z" fill="white"/>
<path d="M14.0576 4.70443C13.2568 4.31441 12.3886 4.08202 11.5001 4.01993V6.02505C12.0374 6.07852 12.5624 6.21929 13.0545 6.4418L14.0576 4.70443Z" fill="white"/>
<path d="M10.5 6.02505V4.01993C9.61154 4.08202 8.74327 4.31441 7.94254 4.70443L8.94567 6.44193C9.43768 6.21937 9.9627 6.07856 10.5 6.02505Z" fill="white"/>
<path d="M15.9751 10.5001H17.9802C17.9181 9.6116 17.6857 8.74338 17.2957 7.94269L15.5582 8.94569C15.7808 9.4377 15.9216 9.96272 15.9751 10.5001Z" fill="white"/>
<path d="M17.9802 11.5001H15.9751C15.9216 12.0374 15.7809 12.5624 15.5584 13.0545L17.2959 14.0575C17.6858 13.2568 17.9182 12.3885 17.9802 11.5001Z" fill="white"/>
<path d="M10.5 17.9802V15.9751C9.9627 15.9216 9.43768 15.7809 8.94567 15.5583L7.94254 17.2958C8.74328 17.6858 9.61155 17.9182 10.5 17.9802Z" fill="white"/>
<path d="M16.7946 14.9229L15.0576 13.9201C14.7419 14.3579 14.3579 14.742 13.9201 15.0576L14.9228 16.7944C15.6592 16.2943 16.2943 15.6593 16.7946 14.9229Z" fill="white"/>
<path d="M6.02505 11.5001H4.01992C4.08201 12.3885 4.3144 13.2568 4.70442 14.0575L6.44192 13.0545C6.21936 12.5624 6.07855 12.0374 6.02505 11.5001Z" fill="white"/>
<path d="M7.0773 16.7946L8.08005 15.0577C7.64226 14.7421 7.25817 14.358 6.94255 13.9202L5.20505 14.9231C5.70548 15.6594 6.34074 16.2944 7.0773 16.7946Z" fill="white"/>
<path d="M6.4418 8.94569L4.7043 7.94269C4.31432 8.74338 4.08197 9.61161 4.01992 10.5001H6.02505C6.07851 9.96272 6.21928 9.4377 6.4418 8.94569Z" fill="white"/>
<path d="M8.0801 6.94247L7.07735 5.20497C6.3409 5.70538 5.70581 6.34064 5.2056 7.07722L6.9431 8.0801C7.25856 7.6423 7.64247 7.25817 8.0801 6.94247Z" fill="white"/>
<path d="M11.5001 15.9751V17.9802C12.3886 17.9181 13.2568 17.6857 14.0576 17.2957L13.0545 15.5582C12.5624 15.7808 12.0374 15.9216 11.5001 15.9751Z" fill="white"/>
<path d="M22.2395 11.0001H21.0001V13.0001H24.0001C24.21 13.0001 24.4146 12.934 24.5848 12.8113C24.7551 12.6886 24.8825 12.5154 24.9488 12.3163L25.9488 9.31631L24.0513 8.68381L23.7263 9.66006C22.5685 8.25157 21.0505 7.18342 19.3337 6.56931L18.6668 8.45506C20.0699 8.95719 21.3065 9.83808 22.2395 11.0001Z" fill="white"/>
<path d="M9.76064 21.0001H11V19.0001H8.00002C7.79013 19.0001 7.58555 19.0661 7.41527 19.1888C7.245 19.3115 7.11765 19.4847 7.05127 19.6838L6.05127 22.6838L7.94877 23.3163L8.27377 22.3401C9.43157 23.7486 10.9497 24.8167 12.6664 25.4308L13.3329 23.5451C11.93 23.0429 10.6935 22.162 9.76064 21.0001Z" fill="white"/>
</g>
<defs>
<clipPath id="clip0_135_509">
<rect width="24" height="24" fill="white" transform="translate(4 4)"/>
</clipPath>
</defs>
</svg>
