<svg width="32" height="32" viewBox="0 0 32 32" fill="none" xmlns="http://www.w3.org/2000/svg">
<g clip-path="url(#clip0_135_544)">
<path d="M27.9154 11.5973C27.8372 11.4197 27.7091 11.2686 27.5465 11.1625C27.384 11.0564 27.1941 11 27 11H21.4375L22.8682 8.4961L21.1317 7.50385L19.1339 11H4.99998C4.80586 10.9999 4.61592 11.0563 4.45333 11.1624C4.29073 11.2684 4.16252 11.4195 4.08433 11.5972C4.00613 11.7748 3.98134 11.9714 4.01298 12.1629C4.04461 12.3545 4.1313 12.5326 4.26248 12.6757L15 24.389V28H17V24.389L27.7375 12.6757C27.8686 12.5326 27.9552 12.3545 27.9868 12.163C28.0184 11.9715 27.9935 11.775 27.9154 11.5973ZM16 22.5201L7.27323 13H17.991L17.4035 14.0278C16.9959 13.9719 16.5812 14.0004 16.1851 14.1115C15.789 14.2226 15.42 14.414 15.1011 14.6738C14.7821 14.9336 14.5199 15.2562 14.3309 15.6216C14.1419 15.9869 14.03 16.3873 14.0023 16.7977C13.9746 17.2082 14.0316 17.6199 14.1697 18.0074C14.3079 18.3949 14.5242 18.7499 14.8054 19.0502C15.0865 19.3505 15.4264 19.5898 15.8039 19.7532C16.1815 19.9166 16.5886 20.0006 17 20C17.7808 20.0004 18.5308 19.6954 19.0896 19.15L16 22.5201ZM18 16C18.1978 16 18.3911 16.0586 18.5555 16.1685C18.72 16.2784 18.8482 16.4346 18.9239 16.6173C18.9995 16.8 19.0193 17.0011 18.9808 17.1951C18.9422 17.389 18.8469 17.5672 18.7071 17.7071C18.5672 17.8469 18.3891 17.9422 18.1951 17.9808C18.0011 18.0193 17.8 17.9995 17.6173 17.9239C17.4346 17.8482 17.2784 17.72 17.1685 17.5555C17.0586 17.3911 17 17.1978 17 17C17 16.7348 17.1053 16.4804 17.2929 16.2929C17.4804 16.1053 17.7348 16 18 16ZM19.3276 18.89C19.7863 18.3269 20.0246 17.6162 19.998 16.8904C19.9714 16.1646 19.6817 15.4733 19.183 14.9453L20.2946 13H24.7267L19.3276 18.89Z" fill="white"/>
<path d="M11.9999 6C12.5522 6 12.9999 5.55228 12.9999 5C12.9999 4.44772 12.5522 4 11.9999 4C11.4476 4 10.9999 4.44772 10.9999 5C10.9999 5.55228 11.4476 6 11.9999 6Z" fill="white"/>
<path d="M14.9999 10C15.5522 10 15.9999 9.55228 15.9999 9C15.9999 8.44772 15.5522 8 14.9999 8C14.4476 8 13.9999 8.44772 13.9999 9C13.9999 9.55228 14.4476 10 14.9999 10Z" fill="white"/>
<path d="M8.99991 9C9.5522 9 9.99991 8.55228 9.99991 8C9.99991 7.44772 9.5522 7 8.99991 7C8.44763 7 7.99991 7.44772 7.99991 8C7.99991 8.55228 8.44763 9 8.99991 9Z" fill="white"/>
<path d="M11.9999 16C12.5522 16 12.9999 15.5523 12.9999 15C12.9999 14.4477 12.5522 14 11.9999 14C11.4476 14 10.9999 14.4477 10.9999 15C10.9999 15.5523 11.4476 16 11.9999 16Z" fill="white"/>
</g>
<defs>
<clipPath id="clip0_135_544">
<rect width="24" height="24" fill="white" transform="translate(4 4)"/>
</clipPath>
</defs>
</svg>
